<?xml version="1.0" encoding="UTF-8" standalone="no"?>
<!-- Created with Inkscape (http://www.inkscape.org/) -->

<svg
   xmlns:dc="http://purl.org/dc/elements/1.1/"
   xmlns:cc="http://creativecommons.org/ns#"
   xmlns:rdf="http://www.w3.org/1999/02/22-rdf-syntax-ns#"
   xmlns:svg="http://www.w3.org/2000/svg"
   xmlns="http://www.w3.org/2000/svg"
   xmlns:sodipodi="http://sodipodi.sourceforge.net/DTD/sodipodi-0.dtd"
   xmlns:inkscape="http://www.inkscape.org/namespaces/inkscape"
   id="svg2"
   version="1.1"
   inkscape:version="0.91 r13725"
   xml:space="preserve"
   width="849.67627"
   height="590.95905"
   viewBox="0 0 849.67627 590.95905"
   sodipodi:docname="analizo-architecture.svg"
   inkscape:export-filename="analizo-architecture.png"
   inkscape:export-xdpi="74.150002"
   inkscape:export-ydpi="74.150002"><metadata
     id="metadata8"><rdf:RDF><cc:Work
         rdf:about=""><dc:format>image/svg+xml</dc:format><dc:type
           rdf:resource="http://purl.org/dc/dcmitype/StillImage" /><dc:title /></cc:Work></rdf:RDF></metadata><defs
     id="defs6"><clipPath
       clipPathUnits="userSpaceOnUse"
       id="clipPath16"><path
         d="m 0,-0.3 793.8,0 0,595.3 L 0,595 0,-0.3 Z"
         id="path18"
         inkscape:connector-curvature="0"
         style="clip-rule:evenodd" /></clipPath></defs><sodipodi:namedview
     pagecolor="#ffffff"
     bordercolor="#666666"
     borderopacity="1"
     objecttolerance="10"
     gridtolerance="10"
     guidetolerance="10"
     inkscape:pageopacity="0"
     inkscape:pageshadow="2"
     inkscape:window-width="1366"
     inkscape:window-height="704"
     id="namedview4"
     showgrid="false"
     inkscape:zoom="0.47"
     inkscape:cx="150.88161"
     inkscape:cy="251.11594"
     inkscape:window-x="0"
     inkscape:window-y="27"
     inkscape:window-maximized="1"
     inkscape:current-layer="g10"
     fit-margin-top="10"
     fit-margin-left="10"
     fit-margin-right="10"
     fit-margin-bottom="10" /><g
     id="g10"
     inkscape:groupmode="layer"
     inkscape:label="analizo-cbsoft2010-tools-slides"
     transform="matrix(1.25,0,0,-1.25,-75.363214,624.58406)"><rect
       transform="scale(1,-1)"
       y="-317.57629"
       x="249.09052"
       height="100.14163"
       width="167.67546"
       id="rect3630"
       style="color:#000000;clip-rule:nonzero;display:inline;overflow:visible;visibility:visible;opacity:1;isolation:auto;mix-blend-mode:normal;color-interpolation:sRGB;color-interpolation-filters:linearRGB;solid-color:#000000;solid-opacity:1;fill:#73d216;fill-opacity:1;fill-rule:evenodd;stroke:#4e9a06;stroke-width:3.20000005;stroke-linecap:butt;stroke-linejoin:miter;stroke-miterlimit:4;stroke-dasharray:none;stroke-dashoffset:0;stroke-opacity:1;color-rendering:auto;image-rendering:auto;shape-rendering:auto;text-rendering:auto;enable-background:accumulate" /><rect
       style="color:#000000;clip-rule:nonzero;display:inline;overflow:visible;visibility:visible;opacity:1;isolation:auto;mix-blend-mode:normal;color-interpolation:sRGB;color-interpolation-filters:linearRGB;solid-color:#000000;solid-opacity:1;fill:#73d216;fill-opacity:1;fill-rule:evenodd;stroke:#4e9a06;stroke-width:3.20000005;stroke-linecap:butt;stroke-linejoin:miter;stroke-miterlimit:4;stroke-dasharray:none;stroke-dashoffset:0;stroke-opacity:1;color-rendering:auto;image-rendering:auto;shape-rendering:auto;text-rendering:auto;enable-background:accumulate"
       id="rect3628"
       width="167.67546"
       height="100.14163"
       x="69.890572"
       y="-317.57629"
       transform="scale(1,-1)" /><rect
       style="color:#000000;clip-rule:nonzero;display:inline;overflow:visible;visibility:visible;opacity:1;isolation:auto;mix-blend-mode:normal;color-interpolation:sRGB;color-interpolation-filters:linearRGB;solid-color:#000000;solid-opacity:1;fill:#73d216;fill-opacity:1;fill-rule:evenodd;stroke:#4e9a06;stroke-width:3.20000005;stroke-linecap:butt;stroke-linejoin:miter;stroke-miterlimit:4;stroke-dasharray:none;stroke-dashoffset:0;stroke-opacity:1;color-rendering:auto;image-rendering:auto;shape-rendering:auto;text-rendering:auto;enable-background:accumulate"
       id="rect3632"
       width="167.67546"
       height="100.14163"
       x="428.29053"
       y="-317.57629"
       transform="scale(1,-1)" /><path
       style="color:#000000;clip-rule:nonzero;display:inline;overflow:visible;visibility:visible;opacity:1;isolation:auto;mix-blend-mode:normal;color-interpolation:sRGB;color-interpolation-filters:linearRGB;solid-color:#000000;solid-opacity:1;fill:#d3d7cf;fill-opacity:1;fill-rule:evenodd;stroke:#babdb6;stroke-width:3.20000005;stroke-linecap:butt;stroke-linejoin:miter;stroke-miterlimit:4;stroke-dasharray:none;stroke-dashoffset:0;stroke-opacity:1;color-rendering:auto;image-rendering:auto;shape-rendering:auto;text-rendering:auto;enable-background:accumulate"
       d="m 70.199631,488.46725 660.231929,0 0,-158.72352 -0.29284,-112 -123.20781,0 -0.29284,112 -41.26449,0 -495.173949,0 z"
       id="rect3626"
       inkscape:connector-curvature="0"
       sodipodi:nodetypes="ccccccccc" /><rect
       style="color:#000000;clip-rule:nonzero;display:inline;overflow:visible;visibility:visible;opacity:1;isolation:auto;mix-blend-mode:normal;color-interpolation:sRGB;color-interpolation-filters:linearRGB;solid-color:#000000;solid-opacity:1;fill:#cc0000;fill-opacity:1;fill-rule:evenodd;stroke:#a40000;stroke-width:3.20000005;stroke-linecap:butt;stroke-linejoin:miter;stroke-miterlimit:4;stroke-dasharray:none;stroke-dashoffset:0;stroke-opacity:1;color-rendering:auto;image-rendering:auto;shape-rendering:auto;text-rendering:auto;enable-background:accumulate"
       id="rect3624"
       width="660.23193"
       height="99.523521"
       x="70.199631"
       y="-205.26726"
       transform="scale(1,-1)" /><path
       d="m 282,36.5 147.3,0 c 7.9,0 14.2,6.3 14.2,14.1 l 0,24.8 c 0,7.8 -6.3,14.2 -14.2,14.2 l -310.7,0 c -7.8,0 -14.1,-6.4 -14.1,-14.2 l 0,-24.8 c 0,-7.8 6.3,-14.1 14.1,-14.1 z"
       style="fill:#800000;fill-opacity:1;fill-rule:evenodd;stroke:none"
       id="path26"
       inkscape:connector-curvature="0"
       sodipodi:nodetypes="cssssssssc" /><g
       id="g28"
       transform="translate(49.6,4.8)"><text
         transform="scale(1,-1)"
         style="font-variant:normal;font-weight:bold;font-size:32px;font-family:LMSans10;-inkscape-font-specification:LMSans10-Bold;writing-mode:lr-tb;fill:#ffffff;fill-opacity:1;fill-rule:nonzero;stroke:none"
         id="text30"
         x="66.600006"
         y="-49.699997"><tspan
           x="66.600006 92.008011 108.808 124.87199 140.93597 158.91998 174.82397 186.72797 200.19998 216.58397 228.29597 241.95998 267.43198 284.23199 300.23199 316.29596 333.89597 350.27997 368.26398"
           y="-49.699997"
           sodipodi:role="line"
           id="tspan32">Doxyparse (Doxygen)</tspan></text>
</g><path
       d="m 154.3,240.7 60.5,0 c 7.8,0 14.2,6.3 14.2,14.1 l 0,24.8 c 0,7.8 -6.4,14.2 -14.2,14.2 l -121.1,0 c -7.8,0 -14.1,-6.4 -14.1,-14.2 l 0,-24.8 c 0,-7.8 6.3,-14.1 14.1,-14.1 z"
       style="fill:#8ae234;fill-opacity:1;fill-rule:evenodd;stroke:none"
       id="path34"
       inkscape:connector-curvature="0"
       sodipodi:nodetypes="cssssssssc" /><g
       id="g36"
       style="fill:#2e3436"
       transform="translate(-1.6,0)"><text
         transform="matrix(1,0,0,-1,88,253.9)"
         style="font-variant:normal;font-weight:bold;font-size:32px;font-family:LMSans10;-inkscape-font-specification:LMSans10-Bold;writing-mode:lr-tb;fill:#2e3436;fill-opacity:1;fill-rule:nonzero;stroke:none"
         id="text38"><tspan
           x="0 20.576 36.576 49.535999 61.439999 78.239998 93.919998 106.88 123.68"
           y="0"
           sodipodi:role="line"
           id="tspan40">Extractor</tspan></text>
</g><path
       d="m 333.4,242.3 49.3,0 c 7.8,0 14.2,6.3 14.2,14.1 l 0,24.8 c 0,7.8 -6.4,14.2 -14.2,14.2 l -98.6,0 c -7.9,0 -14.2,-6.4 -14.2,-14.2 l 0,-24.8 c 0,-7.8 6.3,-14.1 14.2,-14.1 z"
       style="fill:#8ae234;fill-opacity:1;fill-rule:evenodd;stroke:none"
       id="path42"
       inkscape:connector-curvature="0"
       sodipodi:nodetypes="cssssssssc" /><g
       id="g44"
       style="fill:#2e3436"
       transform="translate(-4.8,1.6)"><text
         transform="matrix(1,0,0,-1,283.2,253.9)"
         style="font-variant:normal;font-weight:bold;font-size:32px;font-family:LMSans10;-inkscape-font-specification:LMSans10-Bold;writing-mode:lr-tb;fill:#2e3436;fill-opacity:1;fill-rule:nonzero;stroke:none"
         id="text46"><tspan
           x="0 31.264 47.551998 60.512001 72.416 80.512001 96.192001"
           y="0"
           sodipodi:role="line"
           id="tspan48">Metrics</tspan></text>
</g><path
       d="m 507.6,242.3 50.2,0 c 7.8,0 14.2,6.3 14.2,14.1 l 0,24.8 c 0,7.8 -6.4,14.2 -14.2,14.2 l -92.5,0 c -7.8,0 -14.1,-6.4 -14.1,-14.2 l 0,-24.8 c 0,-7.8 6.3,-14.1 14.1,-14.1 z"
       style="fill:#8ae234;fill-opacity:1;fill-rule:evenodd;stroke:none"
       id="path50"
       inkscape:connector-curvature="0"
       sodipodi:nodetypes="cssssssssc" /><g
       id="g52"
       style="fill:#2e3436"
       transform="translate(14.4,4.8)"><text
         transform="matrix(1,0,0,-1,443.7,253.9)"
         style="font-variant:normal;font-weight:bold;font-size:32px;font-family:LMSans10;-inkscape-font-specification:LMSans10-Bold;writing-mode:lr-tb;fill:#2e3436;fill-opacity:1;fill-rule:nonzero;stroke:none"
         id="text54"><tspan
           x="0 25.408001 43.391998 56.352001 74.335999 92.32"
           y="0"
           sodipodi:role="line"
           id="tspan56">Output</tspan></text>
</g><path
       d="m 389,128.9 27.40483,0 c 9.17414,0 16.70165,6.3 16.70165,14.2 l 0,24.7 c 0,7.8 -7.52751,14.2 -16.70165,14.2 l -54.80966,0 c -9.29176,0 -16.70165,-6.4 -16.70165,-14.2 l 0,-24.7 c 0,-7.9 7.40989,-14.2 16.70165,-14.2 L 389,128.9 Z"
       style="fill:#ef2929;fill-opacity:1;fill-rule:evenodd;stroke:none"
       id="path82"
       inkscape:connector-curvature="0" /><g
       id="g84"
       transform="translate(0,3.2)"
       style="fill:#000000"><text
         transform="matrix(1,0,0,-1,355.2,140.5)"
         style="font-variant:normal;font-weight:bold;font-size:32px;font-family:LMSans10;-inkscape-font-specification:LMSans10-Bold;writing-mode:lr-tb;fill:#000000;fill-opacity:1;fill-rule:nonzero;stroke:none"
         id="text86"><tspan
           x="0 22.464001 39.360001 51.167999"
           y="0"
           sodipodi:role="line"
           id="tspan88">Core</tspan></text>
</g><path
       d="m 403.93138,352.65097 47.5,0 c 7.9,0 14.2,6.3 14.2,14.2 l 0,24.7 c 0,7.8 -6.3,14.2 -14.2,14.2 l -95,0 c -7.8,0 -14.2,-6.4 -14.2,-14.2 l 0,-24.7 c 0,-7.9 6.4,-14.2 14.2,-14.2 z"
       style="fill:#eeeeec;fill-opacity:1;fill-rule:evenodd;stroke:none"
       id="path98"
       inkscape:connector-curvature="0"
       sodipodi:nodetypes="cssssssssc" /><g
       id="g100"
       style="color:#000000;clip-rule:nonzero;display:inline;overflow:visible;visibility:visible;opacity:1;isolation:auto;mix-blend-mode:normal;color-interpolation:sRGB;color-interpolation-filters:linearRGB;solid-color:#000000;solid-opacity:1;fill:#204a87;fill-opacity:1;fill-rule:nonzero;stroke:none;stroke-width:1;stroke-linecap:butt;stroke-linejoin:miter;stroke-miterlimit:4;stroke-dasharray:none;stroke-dashoffset:0;stroke-opacity:1;color-rendering:auto;image-rendering:auto;shape-rendering:auto;text-rendering:auto;enable-background:accumulate"
       transform="translate(-262.36863,65.850972)"><text
         transform="matrix(1,0,0,-1,613.1,300)"
         style="color:#000000;font-variant:normal;font-weight:bold;font-size:32px;font-family:LMSans10;-inkscape-font-specification:LMSans10-Bold;writing-mode:lr-tb;clip-rule:nonzero;display:inline;overflow:visible;visibility:visible;isolation:auto;mix-blend-mode:normal;color-interpolation:sRGB;color-interpolation-filters:linearRGB;solid-color:#000000;solid-opacity:1;fill:#204a87;fill-opacity:1;fill-rule:nonzero;stroke:none;stroke-width:1;stroke-linecap:butt;stroke-linejoin:miter;stroke-miterlimit:4;stroke-dasharray:none;stroke-dashoffset:0;stroke-opacity:1;color-rendering:auto;image-rendering:auto;shape-rendering:auto;text-rendering:auto;enable-background:accumulate"
         id="text102"><tspan
           x="0 27.775999 44.063999 56.959999 68.863998 77.024002 92.704002"
           y="0"
           sodipodi:role="line"
           id="tspan104">metrics</tspan></text>
</g><path
       d="m 209,348.9 102.1,0 c 7.8,0 14.2,6.3 14.2,14.1 l 0,28.4 c 0,7.8 -6.4,14.1 -14.2,14.1 l -205.8,0 c -7.8,0 -14.2,-6.3 -14.2,-14.1 l 0,-28.4 c 0,-7.8 6.4,-14.1 14.2,-14.1 z"
       style="color:#000000;clip-rule:nonzero;display:inline;overflow:visible;visibility:visible;opacity:1;isolation:auto;mix-blend-mode:normal;color-interpolation:sRGB;color-interpolation-filters:linearRGB;solid-color:#000000;solid-opacity:1;fill:#eeeeec;fill-opacity:1;fill-rule:evenodd;stroke:none;stroke-width:1;stroke-linecap:butt;stroke-linejoin:miter;stroke-miterlimit:4;stroke-dasharray:none;stroke-dashoffset:0;stroke-opacity:1;color-rendering:auto;image-rendering:auto;shape-rendering:auto;text-rendering:auto;enable-background:accumulate"
       id="path106"
       inkscape:connector-curvature="0"
       sodipodi:nodetypes="cssssssssc" /><g
       id="g108"
       style="color:#000000;clip-rule:nonzero;display:inline;overflow:visible;visibility:visible;opacity:1;isolation:auto;mix-blend-mode:normal;color-interpolation:sRGB;color-interpolation-filters:linearRGB;solid-color:#000000;solid-opacity:1;fill:#eeeeec;fill-opacity:1;fill-rule:evenodd;stroke:none;stroke-width:1;stroke-linecap:butt;stroke-linejoin:miter;stroke-miterlimit:4;stroke-dasharray:none;stroke-dashoffset:0;stroke-opacity:1;color-rendering:auto;image-rendering:auto;shape-rendering:auto;text-rendering:auto;enable-background:accumulate"
       transform="translate(-110.4,-1.6)"><text
         transform="matrix(1,0,0,-1,211.6,367.2)"
         style="color:#000000;font-variant:normal;font-weight:bold;font-size:32px;font-family:LMSans10;-inkscape-font-specification:LMSans10-Bold;writing-mode:lr-tb;clip-rule:nonzero;display:inline;overflow:visible;visibility:visible;opacity:1;isolation:auto;mix-blend-mode:normal;color-interpolation:sRGB;color-interpolation-filters:linearRGB;solid-color:#000000;solid-opacity:1;fill:#204a87;fill-opacity:1;fill-rule:nonzero;stroke:none;stroke-width:1;stroke-linecap:butt;stroke-linejoin:miter;stroke-miterlimit:4;stroke-dasharray:none;stroke-dashoffset:0;stroke-opacity:1;color-rendering:auto;image-rendering:auto;shape-rendering:auto;text-rendering:auto;enable-background:accumulate"
         id="text110"><tspan
           x="0 27.712 44.096001 56.992001 68.896004 77.056 92.736 106.208 117.984 135.968 144.064 157.632 170.592 187.392 199.29601"
           y="0"
           sodipodi:role="line"
           id="tspan112">metrics-history</tspan></text>
</g><path
       d="m 595.3,352.5 99,0 c 7.8,0 14.1,6.3 14.1,14.1 l 0,24.8 c 0,7.8 -6.3,14.1 -14.1,14.1 l -197.9,0 c -7.8,0 -14.2,-6.3 -14.2,-14.1 l 0,-24.8 c 0,-7.8 6.4,-14.1 14.2,-14.1 z"
       style="color:#000000;clip-rule:nonzero;display:inline;overflow:visible;visibility:visible;opacity:1;isolation:auto;mix-blend-mode:normal;color-interpolation:sRGB;color-interpolation-filters:linearRGB;solid-color:#000000;solid-opacity:1;fill:#eeeeec;fill-opacity:1;fill-rule:evenodd;stroke:none;stroke-width:1;stroke-linecap:butt;stroke-linejoin:miter;stroke-miterlimit:4;stroke-dasharray:none;stroke-dashoffset:0;stroke-opacity:1;color-rendering:auto;image-rendering:auto;shape-rendering:auto;text-rendering:auto;enable-background:accumulate"
       id="path114"
       inkscape:connector-curvature="0"
       sodipodi:nodetypes="cssssssssc" /><g
       id="g116"
       style="color:#000000;clip-rule:nonzero;display:inline;overflow:visible;visibility:visible;opacity:1;isolation:auto;mix-blend-mode:normal;color-interpolation:sRGB;color-interpolation-filters:linearRGB;solid-color:#000000;solid-opacity:1;fill:#204a87;fill-opacity:1;fill-rule:nonzero;stroke:none;stroke-width:1;stroke-linecap:butt;stroke-linejoin:miter;stroke-miterlimit:4;stroke-dasharray:none;stroke-dashoffset:0;stroke-opacity:1;color-rendering:auto;image-rendering:auto;shape-rendering:auto;text-rendering:auto;enable-background:accumulate"
       transform="translate(-24,-1.6)"><text
         transform="matrix(1,0,0,-1,519.5,367.2)"
         style="color:#000000;font-variant:normal;font-weight:bold;font-size:32px;font-family:LMSans10;-inkscape-font-specification:LMSans10-Bold;writing-mode:lr-tb;clip-rule:nonzero;display:inline;overflow:visible;visibility:visible;isolation:auto;mix-blend-mode:normal;color-interpolation:sRGB;color-interpolation-filters:linearRGB;solid-color:#000000;solid-opacity:1;fill:#204a87;fill-opacity:1;fill-rule:nonzero;stroke:none;stroke-width:1;stroke-linecap:butt;stroke-linejoin:miter;stroke-miterlimit:4;stroke-dasharray:none;stroke-dashoffset:0;stroke-opacity:1;color-rendering:auto;image-rendering:auto;shape-rendering:auto;text-rendering:auto;enable-background:accumulate"
         id="text118"><tspan
           x="0 27.775999 44.063999 56.959999 68.863998 77.024002 92.704002 106.272 117.984 135.968 152.76801 165.728 181.408"
           y="0"
           sodipodi:role="line"
           id="tspan120">metrics-batch</tspan></text>
</g><path
       d="m 665.4,228.1 33.9,0 c 7.8,0 14.2,6.3 14.2,14.2 l 0,24.7 c 0,7.8 -6.4,14.2 -14.2,14.2 l -67.8,0 c -7.8,0 -14.2,-6.4 -14.2,-14.2 l 0,-24.7 c 0,-7.9 6.4,-14.2 14.2,-14.2 z"
       style="fill:#eeeeec;fill-opacity:1;fill-rule:evenodd;stroke:none"
       id="path122"
       inkscape:connector-curvature="0"
       sodipodi:nodetypes="cssssssssc" /><g
       id="g124"
       style="color:#000000;clip-rule:nonzero;display:inline;overflow:visible;visibility:visible;opacity:1;isolation:auto;mix-blend-mode:normal;color-interpolation:sRGB;color-interpolation-filters:linearRGB;solid-color:#000000;solid-opacity:1;fill:#204a87;fill-opacity:1;fill-rule:nonzero;stroke:none;stroke-width:1;stroke-linecap:butt;stroke-linejoin:miter;stroke-miterlimit:4;stroke-dasharray:none;stroke-dashoffset:0;stroke-opacity:1;color-rendering:auto;image-rendering:auto;shape-rendering:auto;text-rendering:auto;enable-background:accumulate"
       transform="translate(1.6,4.8)"><text
         transform="matrix(1,0,0,-1,622.6,239.7)"
         style="color:#000000;font-variant:normal;font-weight:bold;font-size:32px;font-family:LMSans10;-inkscape-font-specification:LMSans10-Bold;writing-mode:lr-tb;clip-rule:nonzero;display:inline;overflow:visible;visibility:visible;isolation:auto;mix-blend-mode:normal;color-interpolation:sRGB;color-interpolation-filters:linearRGB;solid-color:#000000;solid-opacity:1;fill:#204a87;fill-opacity:1;fill-rule:nonzero;stroke:none;stroke-width:1;stroke-linecap:butt;stroke-linejoin:miter;stroke-miterlimit:4;stroke-dasharray:none;stroke-dashoffset:0;stroke-opacity:1;color-rendering:auto;image-rendering:auto;shape-rendering:auto;text-rendering:auto;enable-background:accumulate"
         id="text126"><tspan
           x="0 17.6 29.504 46.304001 64.288002"
           y="0"
           sodipodi:role="line"
           id="tspan128">graph</tspan></text>
</g><path
       d="m 123.3,416.5 174.1,0 c 7.8,0 14.2,6.3 14.2,14.1 l 0,24.8 c 0,7.8 -6.4,14.1 -14.2,14.1 l -189.8,0 c -7.8,0 -14.2,-6.3 -14.2,-14.1 l 0,-24.8 c 0,-7.8 6.4,-14.1 14.2,-14.1 z"
       style="color:#000000;clip-rule:nonzero;display:inline;overflow:visible;visibility:visible;opacity:1;isolation:auto;mix-blend-mode:normal;color-interpolation:sRGB;color-interpolation-filters:linearRGB;solid-color:#000000;solid-opacity:1;fill:#eeeeec;fill-opacity:1;fill-rule:evenodd;stroke:none;stroke-width:1;stroke-linecap:butt;stroke-linejoin:miter;stroke-miterlimit:4;stroke-dasharray:none;stroke-dashoffset:0;stroke-opacity:1;color-rendering:auto;image-rendering:auto;shape-rendering:auto;text-rendering:auto;enable-background:accumulate"
       id="path130"
       inkscape:connector-curvature="0"
       sodipodi:nodetypes="cssssssssc" /><g
       id="g132"
       style="color:#000000;clip-rule:nonzero;display:inline;overflow:visible;visibility:visible;opacity:1;isolation:auto;mix-blend-mode:normal;color-interpolation:sRGB;color-interpolation-filters:linearRGB;solid-color:#000000;solid-opacity:1;fill:#204a87;fill-opacity:1;fill-rule:nonzero;stroke:none;stroke-width:1;stroke-linecap:butt;stroke-linejoin:miter;stroke-miterlimit:4;stroke-dasharray:none;stroke-dashoffset:0;stroke-opacity:1;color-rendering:auto;image-rendering:auto;shape-rendering:auto;text-rendering:auto;enable-background:accumulate"
       transform="translate(-344,64)"><text
         transform="matrix(1,0,0,-1,445.9,367.2)"
         style="color:#000000;font-variant:normal;font-weight:bold;font-size:32px;font-family:LMSans10;-inkscape-font-specification:LMSans10-Bold;writing-mode:lr-tb;clip-rule:nonzero;display:inline;overflow:visible;visibility:visible;isolation:auto;mix-blend-mode:normal;color-interpolation:sRGB;color-interpolation-filters:linearRGB;solid-color:#000000;solid-opacity:1;fill:#204a87;fill-opacity:1;fill-rule:nonzero;stroke:none;stroke-width:1;stroke-linecap:butt;stroke-linejoin:miter;stroke-miterlimit:4;stroke-dasharray:none;stroke-dashoffset:0;stroke-opacity:1;color-rendering:auto;image-rendering:auto;shape-rendering:auto;text-rendering:auto;enable-background:accumulate"
         id="text134"><tspan
           x="0"
           y="0"
           sodipodi:role="line"
           id="tspan136">tree-evolution</tspan></text>
</g><path
       inkscape:connector-curvature="0"
       id="path3635"
       style="fill:#800000;fill-opacity:1;fill-rule:evenodd;stroke:none"
       d="m 567.63705,36.5 101.36525,0 c 5.43643,0 9.77181,6.3 9.77181,14.1 l 0,24.8 c 0,7.8 -4.33538,14.2 -9.77181,14.2 l -202.79931,0 C 460.83538,89.6 456.5,83.2 456.5,75.4 l 0,-24.8 c 0,-7.8 4.33538,-14.1 9.70299,-14.1 l 101.43406,0 z" /><g
       id="g3637"
       transform="translate(403.2,8)"><text
         id="text3639"
         style="font-variant:normal;font-weight:bold;font-size:32px;font-family:LMSans10;-inkscape-font-specification:LMSans10-Bold;writing-mode:lr-tb;fill:#ffffff;fill-opacity:1;fill-rule:nonzero;stroke:none"
         transform="matrix(1,0,0,-1,74.6,44.9)"><tspan
           id="tspan3641"
           sodipodi:role="line"
           y="0"
           x="0">SLOCCount</tspan></text>
</g><path
       inkscape:connector-curvature="0"
       id="path4559"
       style="color:#000000;clip-rule:nonzero;display:inline;overflow:visible;visibility:visible;opacity:1;isolation:auto;mix-blend-mode:normal;color-interpolation:sRGB;color-interpolation-filters:linearRGB;solid-color:#000000;solid-opacity:1;fill:#eeeeec;fill-opacity:1;fill-rule:evenodd;stroke:none;stroke-width:1;stroke-linecap:butt;stroke-linejoin:miter;stroke-miterlimit:4;stroke-dasharray:none;stroke-dashoffset:0;stroke-opacity:1;color-rendering:auto;image-rendering:auto;shape-rendering:auto;text-rendering:auto;enable-background:accumulate"
       d="m 361.7,416.5 207.7,0 c 7.8,0 14.2,6.3 14.2,14.1 l 0,24.8 c 0,7.8 -6.4,14.1 -14.2,14.1 l -223.4,0 c -7.8,0 -14.2,-6.3 -14.2,-14.1 l 0,-24.8 c 0,-7.8 6.4,-14.1 14.2,-14.1 z"
       sodipodi:nodetypes="cssssssssc" /><g
       id="g140"
       transform="translate(278.4,9.6)"
       style="fill:#204a87"><text
         transform="matrix(1,0,0,-1,60.4,421.9)"
         style="font-variant:normal;font-weight:bold;font-size:32px;font-family:LMSans10;-inkscape-font-specification:LMSans10-Bold;writing-mode:lr-tb;fill:#204a87;fill-opacity:1;fill-rule:nonzero;stroke:none"
         id="text142"><tspan
           x="0 16.288 32.352001 49.952 58.112 76.096001 88.991997 97.152 114.816 132.8 144.51199 172.224 189.024 201.98399 213.888 221.98399"
           y="0"
           sodipodi:role="line"
           id="tspan144">evolution-matrix</tspan></text>
</g><path
       inkscape:connector-curvature="0"
       id="path4561"
       style="color:#000000;clip-rule:nonzero;display:inline;overflow:visible;visibility:visible;opacity:1;isolation:auto;mix-blend-mode:normal;color-interpolation:sRGB;color-interpolation-filters:linearRGB;solid-color:#000000;solid-opacity:1;fill:#eeeeec;fill-opacity:1;fill-rule:evenodd;stroke:none;stroke-width:1;stroke-linecap:butt;stroke-linejoin:miter;stroke-miterlimit:4;stroke-dasharray:none;stroke-dashoffset:0;stroke-opacity:1;color-rendering:auto;image-rendering:auto;shape-rendering:auto;text-rendering:auto;enable-background:accumulate"
       d="m 667.86471,289.72353 18.9,0 c 7.8,0 14.2,6.3 14.2,14.1 l 0,24.8 c 0,7.8 -6.4,14.1 -14.2,14.1 l -45.8,0 c -7.8,0 -14.2,-6.3 -14.2,-14.1 l 0,-24.8 c 0,-7.8 6.4,-14.1 14.2,-14.1 z"
       sodipodi:nodetypes="cssssssssc" /><g
       transform="translate(563.76471,-118.77647)"
       id="g4487"
       style="color:#000000;clip-rule:nonzero;display:inline;overflow:visible;visibility:visible;opacity:1;isolation:auto;mix-blend-mode:normal;color-interpolation:sRGB;color-interpolation-filters:linearRGB;solid-color:#000000;solid-opacity:1;fill:#204a87;fill-opacity:1;fill-rule:nonzero;stroke:none;stroke-width:1;stroke-linecap:butt;stroke-linejoin:miter;stroke-miterlimit:4;stroke-dasharray:none;stroke-dashoffset:0;stroke-opacity:1;color-rendering:auto;image-rendering:auto;shape-rendering:auto;text-rendering:auto;enable-background:accumulate"><text
         id="text4489"
         style="color:#000000;font-variant:normal;font-weight:bold;font-size:32px;font-family:LMSans10;-inkscape-font-specification:LMSans10-Bold;writing-mode:lr-tb;clip-rule:nonzero;display:inline;overflow:visible;visibility:visible;isolation:auto;mix-blend-mode:normal;color-interpolation:sRGB;color-interpolation-filters:linearRGB;solid-color:#000000;solid-opacity:1;fill:#204a87;fill-opacity:1;fill-rule:nonzero;stroke:none;stroke-width:1;stroke-linecap:butt;stroke-linejoin:miter;stroke-miterlimit:4;stroke-dasharray:none;stroke-dashoffset:0;stroke-opacity:1;color-rendering:auto;image-rendering:auto;shape-rendering:auto;text-rendering:auto;enable-background:accumulate"
         transform="scale(1,-1)"
         x="69.999992"
         y="-421.89999"><tspan
           id="tspan4491"
           sodipodi:role="line"
           y="-421.89999"
           x="69.999992">dsm</tspan></text>
</g><path
       sodipodi:nodetypes="cssssssssc"
       inkscape:connector-curvature="0"
       id="path4563"
       style="fill:#eeeeec;fill-opacity:1;fill-rule:evenodd;stroke:none"
       d="m 650.84314,417.21373 33.9,0 c 7.8,0 14.2,6.3 14.2,14.2 l 0,24.7 c 0,7.8 -6.4,14.2 -14.2,14.2 l -67.8,0 c -7.8,0 -14.2,-6.4 -14.2,-14.2 l 0,-24.7 c 0,-7.9 6.4,-14.2 14.2,-14.2 z" /><g
       transform="translate(-12.956863,193.91373)"
       style="color:#000000;clip-rule:nonzero;display:inline;overflow:visible;visibility:visible;opacity:1;isolation:auto;mix-blend-mode:normal;color-interpolation:sRGB;color-interpolation-filters:linearRGB;solid-color:#000000;solid-opacity:1;fill:#204a87;fill-opacity:1;fill-rule:nonzero;stroke:none;stroke-width:1;stroke-linecap:butt;stroke-linejoin:miter;stroke-miterlimit:4;stroke-dasharray:none;stroke-dashoffset:0;stroke-opacity:1;color-rendering:auto;image-rendering:auto;shape-rendering:auto;text-rendering:auto;enable-background:accumulate"
       id="g4565"><text
         id="text4567"
         style="color:#000000;font-variant:normal;font-weight:bold;font-size:32px;font-family:LMSans10;-inkscape-font-specification:LMSans10-Bold;writing-mode:lr-tb;clip-rule:nonzero;display:inline;overflow:visible;visibility:visible;isolation:auto;mix-blend-mode:normal;color-interpolation:sRGB;color-interpolation-filters:linearRGB;solid-color:#000000;solid-opacity:1;fill:#204a87;fill-opacity:1;fill-rule:nonzero;stroke:none;stroke-width:1;stroke-linecap:butt;stroke-linejoin:miter;stroke-miterlimit:4;stroke-dasharray:none;stroke-dashoffset:0;stroke-opacity:1;color-rendering:auto;image-rendering:auto;shape-rendering:auto;text-rendering:auto;enable-background:accumulate"
         transform="scale(1,-1)"
         x="630.59991"
         y="-239.7"><tspan
           id="tspan4569"
           sodipodi:role="line"
           y="-239.7"
           x="630.59991">help</tspan></text>
</g></g></svg>