<?xml version="1.0" encoding="UTF-8" standalone="no"?>
<!-- Created with Inkscape (http://www.inkscape.org/) -->

<svg
   xmlns:dc="http://purl.org/dc/elements/1.1/"
   xmlns:cc="http://creativecommons.org/ns#"
   xmlns:rdf="http://www.w3.org/1999/02/22-rdf-syntax-ns#"
   xmlns:svg="http://www.w3.org/2000/svg"
   xmlns="http://www.w3.org/2000/svg"
   xmlns:xlink="http://www.w3.org/1999/xlink"
   xmlns:sodipodi="http://sodipodi.sourceforge.net/DTD/sodipodi-0.dtd"
   xmlns:inkscape="http://www.inkscape.org/namespaces/inkscape"
   width="744.42108mm"
   height="134.8087mm"
   viewBox="0 0 2637.7125 477.66865"
   id="svg2"
   version="1.1"
   inkscape:version="0.92.1 r15371"
   sodipodi:docname="revisao-estruturada.svg"
   inkscape:export-filename="revisao-estruturada.png"
   inkscape:export-xdpi="43.669998"
   inkscape:export-ydpi="43.669998">
  <defs
     id="defs4">
    <marker
       inkscape:isstock="true"
       style="overflow:visible"
       id="marker5429"
       refX="0"
       refY="0"
       orient="auto"
       inkscape:stockid="Arrow2Lend">
      <path
         inkscape:connector-curvature="0"
         transform="matrix(-1.1,0,0,-1.1,-1.1,0)"
         d="M 8.7185878,4.0337352 -2.2072895,0.01601326 8.7185884,-4.0017078 c -1.7454984,2.3720609 -1.7354408,5.6174519 -6e-7,8.035443 z"
         style="fill:#888a85;fill-opacity:1;fill-rule:evenodd;stroke:#888a85;stroke-width:0.625;stroke-linejoin:round;stroke-opacity:1"
         id="path5431" />
    </marker>
    <marker
       inkscape:isstock="true"
       style="overflow:visible"
       id="marker8757"
       refX="0"
       refY="0"
       orient="auto"
       inkscape:stockid="Arrow2Lend">
      <path
         transform="matrix(-1.1,0,0,-1.1,-1.1,0)"
         d="M 8.7185878,4.0337352 -2.2072895,0.01601326 8.7185884,-4.0017078 c -1.7454984,2.3720609 -1.7354408,5.6174519 -6e-7,8.035443 z"
         style="fill:#888a85;fill-opacity:1;fill-rule:evenodd;stroke:#888a85;stroke-width:0.625;stroke-linejoin:round;stroke-opacity:1"
         id="path8759"
         inkscape:connector-curvature="0" />
    </marker>
    <marker
       inkscape:stockid="Arrow2Lend"
       orient="auto"
       refY="0"
       refX="0"
       id="Arrow2Lend"
       style="overflow:visible"
       inkscape:isstock="true"
       inkscape:collect="always">
      <path
         id="path5793"
         style="fill:#888a85;fill-opacity:1;fill-rule:evenodd;stroke:#888a85;stroke-width:0.625;stroke-linejoin:round;stroke-opacity:1"
         d="M 8.7185878,4.0337352 -2.2072895,0.01601326 8.7185884,-4.0017078 c -1.7454984,2.3720609 -1.7354408,5.6174519 -6e-7,8.035443 z"
         transform="matrix(-1.1,0,0,-1.1,-1.1,0)"
         inkscape:connector-curvature="0" />
    </marker>
    <marker
       inkscape:stockid="Arrow2Mend"
       orient="auto"
       refY="0"
       refX="0"
       id="Arrow2Mend"
       style="overflow:visible"
       inkscape:isstock="true">
      <path
         id="path5799"
         style="fill:#000000;fill-opacity:1;fill-rule:evenodd;stroke:#000000;stroke-width:0.625;stroke-linejoin:round;stroke-opacity:1"
         d="M 8.7185878,4.0337352 -2.2072895,0.01601326 8.7185884,-4.0017078 c -1.7454984,2.3720609 -1.7354408,5.6174519 -6e-7,8.035443 z"
         transform="scale(-0.6)"
         inkscape:connector-curvature="0" />
    </marker>
    <linearGradient
       y2="-112"
       x2="-80"
       gradientTransform="matrix(1.2497316,0,0,1.2487797,-270.75074,1853.1268)"
       y1="123"
       gradientUnits="userSpaceOnUse"
       x1="105"
       id="linearGradient3046">
      <stop
         offset="0"
         stop-color="#e6e6e6"
         id="stop3602" />
      <stop
         offset="1"
         stop-color="#f9f9f9"
         id="stop3604" />
    </linearGradient>
    <linearGradient
       y2="957.35999"
       x2="80"
       gradientTransform="matrix(1.2497316,0,0,1.2487797,-270.75074,698.80458)"
       y1="944.35999"
       gradientUnits="userSpaceOnUse"
       x1="93"
       id="linearGradient3048">
      <stop
         offset="0"
         stop-color="#ccc"
         id="stop3610" />
      <stop
         offset=".22008"
         stop-color="#e6e6e6"
         id="stop3616" />
      <stop
         offset=".46933"
         stop-color="#fff"
         id="stop3618" />
      <stop
         offset="1"
         stop-color="#e6e6e6"
         id="stop3612" />
    </linearGradient>
    <linearGradient
       id="linearGradient3928-8">
      <stop
         offset="0"
         style="stop-color:#7c7c7c"
         id="stop3930-2" />
      <stop
         offset="1"
         style="stop-color:#e6e3e3"
         id="stop3932-0" />
    </linearGradient>
    <linearGradient
       inkscape:collect="always"
       x1="86.236"
       y1="38.743999"
       x2="476.85999"
       gradientUnits="userSpaceOnUse"
       y2="6.4962001"
       id="linearGradient3764"
       gradientTransform="matrix(2.2661662,0,0,2.20929,-2693.0794,1442.5496)">
      <stop
         offset="0"
         style="stop-color:#2a6877"
         id="stop3729" />
      <stop
         offset="1"
         style="stop-color:#2c89a0;stop-opacity:0"
         id="stop3731" />
    </linearGradient>
    <filter
       style="color-interpolation-filters:sRGB"
       inkscape:collect="always"
       x="-0.26697001"
       y="-0.21798"
       width="1.5339"
       height="1.436"
       id="filter14892">
      <feGaussianBlur
         inkscape:collect="always"
         stdDeviation="2.2792624"
         id="feGaussianBlur14894" />
    </filter>
    <filter
       style="color-interpolation-filters:sRGB"
       inkscape:collect="always"
       x="-0.029138001"
       y="-0.13610999"
       width="1.0583"
       height="1.2722"
       id="filter12921">
      <feGaussianBlur
         inkscape:collect="always"
         stdDeviation="1.1108522"
         id="feGaussianBlur12923" />
    </filter>
    <linearGradient
       id="linearGradient4183">
      <stop
         offset="0"
         style="stop-color:rgb(255, 255, 255)"
         id="stop4185" />
      <stop
         offset="1"
         style="stop-color:rgb(141, 134, 213);stop-opacity:0"
         id="stop4187" />
    </linearGradient>
    <linearGradient
       inkscape:collect="always"
       xlink:href="#linearGradient3764"
       id="linearGradient4021"
       gradientUnits="userSpaceOnUse"
       gradientTransform="matrix(2.2661662,0,0,2.20929,-5812.986,1348.5808)"
       x1="86.236"
       y1="38.743999"
       x2="476.85999"
       y2="6.4962001" />
    <linearGradient
       inkscape:collect="always"
       xlink:href="#linearGradient3764"
       id="linearGradient4023"
       gradientUnits="userSpaceOnUse"
       gradientTransform="matrix(2.2661662,0,0,2.20929,-5522.9167,1348.5808)"
       x1="86.236"
       y1="38.743999"
       x2="476.85999"
       y2="6.4962001" />
  </defs>
  <sodipodi:namedview
     id="base"
     pagecolor="#ffffff"
     bordercolor="#666666"
     borderopacity="1.0"
     inkscape:pageopacity="0.0"
     inkscape:pageshadow="2"
     inkscape:zoom="0.30804699"
     inkscape:cx="611.40354"
     inkscape:cy="283.69999"
     inkscape:document-units="px"
     inkscape:current-layer="layer1"
     showgrid="false"
     inkscape:window-width="1366"
     inkscape:window-height="704"
     inkscape:window-x="0"
     inkscape:window-y="27"
     inkscape:window-maximized="1"
     fit-margin-top="5"
     fit-margin-left="5"
     fit-margin-right="5"
     fit-margin-bottom="5" />
  <metadata
     id="metadata7">
    <rdf:RDF>
      <cc:Work
         rdf:about="">
        <dc:format>image/svg+xml</dc:format>
        <dc:type
           rdf:resource="http://purl.org/dc/dcmitype/StillImage" />
        <dc:title />
      </cc:Work>
    </rdf:RDF>
  </metadata>
  <g
     inkscape:label="Camada 1"
     inkscape:groupmode="layer"
     id="layer1"
     transform="translate(1479.4711,-207.36628)">
    <g
       transform="matrix(0.13492155,0,0,0.13492155,-951.86079,325.08282)"
       id="g5718">
      <g
         id="g5720">
        <path
           inkscape:connector-curvature="0"
           d="m 160.381,282.225 c 0,-14.832 -10.299,-23.684 -28.474,-23.684 -7.414,0 -12.437,0.715 -15.071,1.432 V 307.6 c 3.114,0.707 6.942,0.949 12.192,0.949 19.391,0 31.353,-9.809 31.353,-26.324 z"
           id="path5722" />
        <path
           inkscape:connector-curvature="0"
           d="m 272.875,259.019 c -8.145,0 -13.397,0.717 -16.519,1.435 v 105.523 c 3.116,0.729 8.142,0.729 12.69,0.729 33.017,0.231 54.554,-17.946 54.554,-56.474 0.242,-33.513 -19.385,-51.213 -50.725,-51.213 z"
           id="path5724" />
        <path
           inkscape:connector-curvature="0"
           d="M 488.426,197.019 H 475.2 v -63.816 c 0,-0.398 -0.063,-0.799 -0.116,-1.202 -0.021,-2.534 -0.827,-5.023 -2.562,-6.995 L 366.325,3.694 C 366.293,3.663 366.262,3.652 366.24,3.618 365.607,2.911 364.869,2.323 364.089,1.814 363.858,1.659 363.625,1.529 363.383,1.395 362.707,1.026 361.99,0.72 361.252,0.499 c -0.2,-0.056 -0.38,-0.138 -0.58,-0.19 C 359.87,0.119 359.037,0 358.193,0 H 97.2 C 85.282,0 75.6,9.693 75.6,21.601 V 197.014 H 62.377 c -17.049,0 -30.873,13.818 -30.873,30.873 v 160.545 c 0,17.043 13.824,30.87 30.873,30.87 H 75.601 V 529.2 c 0,11.907 9.682,21.601 21.6,21.601 h 356.4 c 11.907,0 21.6,-9.693 21.6,-21.601 V 419.302 h 13.226 c 17.044,0 30.871,-13.827 30.871,-30.87 V 227.892 C 519.297,210.838 505.47,197.019 488.426,197.019 Z M 97.2,21.605 h 250.193 v 110.513 c 0,5.967 4.841,10.8 10.8,10.8 H 453.6 v 54.108 H 97.2 Z m 265.159,287.418 c 0,30.876 -11.243,52.165 -26.82,65.333 -16.971,14.117 -42.82,20.814 -74.396,20.814 -18.9,0 -32.297,-1.197 -41.401,-2.389 V 234.365 c 13.399,-2.149 30.878,-3.346 49.304,-3.346 30.612,0 50.478,5.508 66.039,17.226 16.743,12.445 27.274,32.302 27.274,60.778 z M 80.7,393.499 V 234.365 c 11.241,-1.904 27.042,-3.346 49.296,-3.346 22.491,0 38.527,4.308 49.291,12.928 10.292,8.131 17.215,21.534 17.215,37.328 0,15.799 -5.25,29.198 -14.829,38.285 -12.442,11.728 -30.865,16.996 -52.407,16.996 -4.778,0 -9.1,-0.243 -12.435,-0.723 v 57.67 H 80.7 Z M 453.601,523.353 H 97.2 V 419.302 h 356.4 v 104.051 z m 31.297,-261.226 h -61.989 v 36.851 h 57.913 v 29.674 H 422.909 V 393.5 H 386.316 V 232.216 h 98.582 z"
           id="path5726" />
      </g>
      <g
         id="g5728" />
      <g
         id="g5730" />
      <g
         id="g5732" />
      <g
         id="g5734" />
      <g
         id="g5736" />
      <g
         id="g5738" />
      <g
         id="g5740" />
      <g
         id="g5742" />
      <g
         id="g5744" />
      <g
         id="g5746" />
      <g
         id="g5748" />
      <g
         id="g5750" />
      <g
         id="g5752" />
      <g
         id="g5754" />
      <g
         id="g5756" />
    </g>
    <text
       id="text5758"
       y="657.95801"
       x="-880.83923"
       style="font-style:normal;font-weight:normal;line-height:0%;font-family:sans-serif;letter-spacing:0px;word-spacing:0px;fill:#000000;fill-opacity:1;stroke:none;stroke-width:1px;stroke-linecap:butt;stroke-linejoin:miter;stroke-opacity:1"
       xml:space="preserve"><tspan
         style="font-style:normal;font-variant:normal;font-weight:normal;font-stretch:normal;font-size:45.00000381px;line-height:1.25;font-family:sans-serif;-inkscape-font-specification:sans-serif"
         y="657.95801"
         x="-880.83923"
         id="tspan5760"
         sodipodi:role="line">Artigos</tspan></text>
    <path
       style="fill:#888a85;fill-rule:evenodd;stroke:#888a85;stroke-width:4.00000048;stroke-linecap:butt;stroke-linejoin:miter;stroke-miterlimit:4;stroke-dasharray:16.00000095, 16.00000095;stroke-dashoffset:0;stroke-opacity:1;marker-end:url(#Arrow2Lend)"
       d="m -602.90182,409.59049 16.59729,0.61252"
       id="path5766"
       inkscape:connector-curvature="0"
       sodipodi:nodetypes="cc" />
    <g
       transform="matrix(0.44127391,0,0,0.45263409,862.14175,332.9667)"
       id="g3766">
      <path
         inkscape:connector-curvature="0"
         id="path4127"
         style="fill:url(#linearGradient4023);fill-rule:evenodd"
         d="M 55.665,34.471 79.063,49.303 237.463,33.544 205.243,22.648 55.663,34.471 Z"
         inkscape:export-ydpi="69"
         sodipodi:nodetypes="ccccc"
         inkscape:export-filename="/home/leandro/Área de Trabalho/box.png"
         inkscape:export-xdpi="69" />
      <path
         inkscape:connector-curvature="0"
         id="path4129"
         style="fill:#729fcf;fill-rule:evenodd"
         d="m 230.05,235.69 -142.8,35.23 -8.346,-221.61 158.57,-15.767 -7.42,202.15 z"
         inkscape:export-ydpi="69"
         sodipodi:nodetypes="ccccc"
         inkscape:export-filename="/home/leandro/Área de Trabalho/box.png"
         inkscape:export-xdpi="69" />
      <path
         inkscape:connector-curvature="0"
         id="path4131"
         style="fill:#216778;fill-rule:evenodd"
         d="M 87.617,270.95 64.147,234.76 55.723,34.47 79.125,49.307 87.617,270.947 Z"
         inkscape:export-ydpi="69"
         sodipodi:nodetypes="ccccc"
         inkscape:export-filename="/home/leandro/Área de Trabalho/box.png"
         inkscape:export-xdpi="69" />
      <ellipse
         ry="13.889598"
         rx="8.3337584"
         cy="481.87854"
         cx="275.01404"
         id="path13917"
         style="fill:#a9a9a9;fill-rule:evenodd;filter:url(#filter14892)"
         inkscape:export-ydpi="69"
         inkscape:export-filename="/home/leandro/Área de Trabalho/box.png"
         transform="matrix(1.6257,-1.1039,1.0335,1.7364,-875.9,-286.88)"
         inkscape:export-xdpi="69" />
      <path
         inkscape:connector-curvature="0"
         id="path11948"
         style="fill:#696969;fill-rule:evenodd;filter:url(#filter12921)"
         d="m 390.44,478.87 13.069,19.856 79.692,-20.093 -92.76,0.23676 z"
         inkscape:export-ydpi="69"
         sodipodi:nodetypes="cccc"
         inkscape:export-filename="/home/leandro/Área de Trabalho/box.png"
         transform="matrix(1.8359,0,0,1.8359,-654.18,-642.96)"
         inkscape:export-xdpi="69" />
      <path
         inkscape:connector-curvature="0"
         id="path11944"
         style="fill:#dcdcdc;fill-rule:evenodd"
         d="m 231.45,197.27 -1.4306,38.423 -142.74,35.208 -1.579,-42.243 145.75,-31.388 z"
         inkscape:export-ydpi="69"
         sodipodi:nodetypes="ccccc"
         inkscape:export-filename="/home/leandro/Área de Trabalho/box.png"
         inkscape:export-xdpi="69" />
      <path
         inkscape:connector-curvature="0"
         id="path13913"
         style="fill:#c0c0c0;fill-rule:evenodd"
         d="m 87.286,270.9 -23.211,-35.08 -1.545,-39.41 23.179,32.236 1.5776,42.249 z"
         inkscape:export-ydpi="69"
         sodipodi:nodetypes="ccccc"
         inkscape:export-filename="/home/leandro/Área de Trabalho/box.png"
         inkscape:export-xdpi="69" />
      <path
         inkscape:connector-curvature="0"
         id="path9999"
         style="fill:#dcdcdc;fill-rule:evenodd"
         d="M 237.24,39.574 235.56,85.34 81.22,104.14 79.268,54.423 237.238,39.574 Z"
         inkscape:export-ydpi="69"
         sodipodi:nodetypes="ccccc"
         inkscape:export-filename="/home/leandro/Área de Trabalho/box.png"
         inkscape:export-xdpi="69" />
      <path
         inkscape:connector-curvature="0"
         id="path13915"
         style="fill:#c0c0c0;fill-rule:evenodd"
         d="M 81.227,104.14 57.863,86.092 55.906,38.847 l 23.401,15.576 1.9192,49.718 z"
         inkscape:export-ydpi="69"
         sodipodi:nodetypes="ccccc"
         inkscape:export-filename="/home/leandro/Área de Trabalho/box.png"
         inkscape:export-xdpi="69" />
      <g
         id="g2999"
         inkscape:export-ydpi="69"
         inkscape:export-xdpi="69"
         inkscape:export-filename="/home/leandro/Área de Trabalho/box.png">
        <rect
           id="rect2233"
           style="fill:#cccccc;stroke:#666666;stroke-width:0.25228345;stroke-linejoin:round"
           transform="matrix(0.50945,0.8605,0.024265,0.99971,0,0)"
           height="9.3542995"
           width="22.261999"
           y="101.62"
           x="126.89" />
        <rect
           id="rect2160"
           style="fill:#000000;stroke:#0e0101;stroke-width:0.05319769;stroke-linejoin:round"
           transform="matrix(0.50945,0.8605,0.024265,0.99971,0,0)"
           ry="0"
           height="7.1564999"
           width="0.28507999"
           y="102.37"
           x="128.74001" />
        <rect
           id="rect2162"
           style="fill:#000000;stroke:#0e0101;stroke-width:0.05319769;stroke-linejoin:round"
           transform="matrix(0.50945,0.8605,0.024265,0.99971,0,0)"
           ry="0"
           height="7.1564999"
           width="0.28507999"
           y="102.37"
           x="129.24001" />
        <rect
           id="rect2164"
           style="fill:#000000;stroke:#0e0101;stroke-width:0.05027545;stroke-linejoin:round"
           transform="matrix(0.50945,0.8605,0.024265,0.99971,0,0)"
           ry="0"
           height="6.3628001"
           width="0.28639001"
           y="102.37"
           x="130.25" />
        <rect
           id="rect2166"
           style="fill:#000000;stroke:#0e0101;stroke-width:0.07090341;stroke-linejoin:round"
           transform="matrix(0.50945,0.8605,0.024265,0.99971,0,0)"
           ry="0"
           height="6.3575001"
           width="0.57007003"
           y="102.37"
           x="130.75999" />
        <rect
           id="rect2168"
           style="fill:#000000;stroke:#0e0101;stroke-width:0.04132526;stroke-linejoin:round"
           transform="matrix(0.50945,0.8605,0.024265,0.99971,0,0)"
           ry="0"
           height="6.3650999"
           width="0.19343001"
           y="102.37"
           x="131.75" />
        <rect
           id="rect2170"
           style="fill:#000000;stroke:#0e0101;stroke-width:0.07090341;stroke-linejoin:round"
           transform="matrix(0.50945,0.8605,0.024265,0.99971,0,0)"
           ry="0"
           height="6.3575001"
           width="0.57007003"
           y="102.37"
           x="132.75999" />
        <rect
           id="rect2172"
           style="fill:#000000;stroke:#0e0101;stroke-width:0.06472553;stroke-linejoin:round"
           transform="matrix(0.50945,0.8605,0.024265,0.99971,0,0)"
           ry="0"
           height="6.3590999"
           width="0.47497001"
           y="102.37"
           x="133.77" />
        <rect
           id="rect2174"
           style="fill:#000000;stroke:#0e0101;stroke-width:0.04132526;stroke-linejoin:round"
           transform="matrix(0.50945,0.8605,0.024265,0.99971,0,0)"
           ry="0"
           height="6.3650999"
           width="0.19343001"
           y="102.37"
           x="134.75999" />
        <rect
           id="rect2176"
           style="fill:#000000;stroke:#0e0101;stroke-width:0.04132526;stroke-linejoin:round"
           transform="matrix(0.50945,0.8605,0.024265,0.99971,0,0)"
           ry="0"
           height="6.3650999"
           width="0.19343001"
           y="102.37"
           x="135.25999" />
        <rect
           id="rect2178"
           style="fill:#000000;stroke:#0e0101;stroke-width:0.04132526;stroke-linejoin:round"
           transform="matrix(0.50945,0.8605,0.024265,0.99971,0,0)"
           ry="0"
           height="6.3650999"
           width="0.19343001"
           y="102.37"
           x="135.75999" />
        <rect
           id="rect2180"
           style="fill:#000000;stroke:#0e0101;stroke-width:0.07660019;stroke-linejoin:round"
           transform="matrix(0.50945,0.8605,0.024265,0.99971,0,0)"
           ry="0"
           height="6.3559999"
           width="0.66553998"
           y="102.37"
           x="136.78" />
        <rect
           id="rect2182"
           style="fill:#000000;stroke:#0e0101;stroke-width:0.05027545;stroke-linejoin:round"
           transform="matrix(0.50945,0.8605,0.024265,0.99971,0,0)"
           ry="0"
           height="6.3628001"
           width="0.28639001"
           y="102.37"
           x="138.17999" />
        <rect
           id="rect2184"
           style="fill:#000000;stroke:#0e0101;stroke-width:0.05027545;stroke-linejoin:round"
           transform="matrix(0.50945,0.8605,0.024265,0.99971,0,0)"
           ry="0"
           height="6.3628001"
           width="0.28639001"
           y="102.37"
           x="138.67999" />
        <rect
           id="rect2186"
           style="fill:#000000;stroke:#0e0101;stroke-width:0.07660019;stroke-linejoin:round"
           transform="matrix(0.50945,0.8605,0.024265,0.99971,0,0)"
           ry="0"
           height="6.3559999"
           width="0.66553998"
           y="102.37"
           x="139.44" />
        <rect
           id="rect2188"
           style="fill:#000000;stroke:#0e0101;stroke-width:0.04132526;stroke-linejoin:round"
           transform="matrix(0.50945,0.8605,0.024265,0.99971,0,0)"
           ry="0"
           height="6.3650999"
           width="0.19343001"
           y="102.37"
           x="141.17999" />
        <rect
           id="rect2190"
           style="fill:#000000;stroke:#0e0101;stroke-width:0.04379328;stroke-linejoin:round"
           transform="matrix(0.50945,0.8605,0.024265,0.99971,0,0)"
           ry="0"
           height="7.1591001"
           width="0.19312"
           y="102.37"
           x="141.67999" />
        <rect
           id="rect2192"
           style="fill:#000000;stroke:#0e0101;stroke-width:0.04379328;stroke-linejoin:round"
           transform="matrix(0.50945,0.8605,0.024265,0.99971,0,0)"
           ry="0"
           height="7.1591001"
           width="0.19312"
           y="102.37"
           x="142.19" />
        <rect
           id="rect2194"
           style="fill:#000000;stroke:#0e0101;stroke-width:0.04132526;stroke-linejoin:round"
           transform="matrix(0.50945,0.8605,0.024265,0.99971,0,0)"
           ry="0"
           height="6.3650999"
           width="0.19343001"
           y="102.37"
           x="143.19" />
        <rect
           id="rect2196"
           style="fill:#000000;stroke:#0e0101;stroke-width:0.07090341;stroke-linejoin:round"
           transform="matrix(0.50945,0.8605,0.024265,0.99971,0,0)"
           ry="0"
           height="6.3575001"
           width="0.57007003"
           y="102.37"
           x="143.7" />
        <rect
           id="rect2198"
           style="fill:#000000;stroke:#0e0101;stroke-width:0.07090341;stroke-linejoin:round"
           transform="matrix(0.50945,0.8605,0.024265,0.99971,0,0)"
           ry="0"
           height="6.3575001"
           width="0.57007003"
           y="102.37"
           x="144.71001" />
        <rect
           id="rect2204"
           style="fill:#000000;stroke:#0e0101;stroke-width:0.04039444;stroke-linejoin:round"
           transform="matrix(0.50945,0.8605,0.024265,0.99971,0,0)"
           ry="0"
           height="6.3710999"
           width="0.18463001"
           y="102.36"
           x="145.60001" />
        <rect
           id="rect2206"
           style="fill:#000000;stroke:#0e0101;stroke-width:0.04039444;stroke-linejoin:round"
           transform="matrix(0.50945,0.8605,0.024265,0.99971,0,0)"
           ry="0"
           height="6.3710999"
           width="0.18463001"
           y="102.36"
           x="146.10001" />
        <rect
           id="rect2208"
           style="fill:#000000;stroke:#0e0101;stroke-width:0.07090341;stroke-linejoin:round"
           transform="matrix(0.50945,0.8605,0.024265,0.99971,0,0)"
           ry="0"
           height="6.3575001"
           width="0.57007003"
           y="102.37"
           x="146.61" />
      </g>
    </g>
    <text
       xml:space="preserve"
       style="font-style:normal;font-weight:normal;line-height:0%;font-family:sans-serif;letter-spacing:0px;word-spacing:0px;fill:#000000;fill-opacity:1;stroke:none;stroke-width:1px;stroke-linecap:butt;stroke-linejoin:miter;stroke-opacity:1"
       x="858.85748"
       y="519.45801"
       id="text8745"><tspan
         sodipodi:role="line"
         id="tspan8747"
         x="858.85748"
         y="519.45801"
         style="font-style:normal;font-variant:normal;font-weight:normal;font-stretch:normal;font-size:45.00000381px;line-height:1.25;font-family:sans-serif;-inkscape-font-specification:sans-serif">Ferramentas</tspan></text>
    <g
       id="g3750"
       transform="matrix(0.13492155,0,0,0.13492155,-851.86079,325.08282)">
      <g
         id="g3752">
        <path
           id="path3754"
           d="m 160.381,282.225 c 0,-14.832 -10.299,-23.684 -28.474,-23.684 -7.414,0 -12.437,0.715 -15.071,1.432 V 307.6 c 3.114,0.707 6.942,0.949 12.192,0.949 19.391,0 31.353,-9.809 31.353,-26.324 z"
           inkscape:connector-curvature="0" />
        <path
           id="path3756"
           d="m 272.875,259.019 c -8.145,0 -13.397,0.717 -16.519,1.435 v 105.523 c 3.116,0.729 8.142,0.729 12.69,0.729 33.017,0.231 54.554,-17.946 54.554,-56.474 0.242,-33.513 -19.385,-51.213 -50.725,-51.213 z"
           inkscape:connector-curvature="0" />
        <path
           id="path3758"
           d="M 488.426,197.019 H 475.2 v -63.816 c 0,-0.398 -0.063,-0.799 -0.116,-1.202 -0.021,-2.534 -0.827,-5.023 -2.562,-6.995 L 366.325,3.694 C 366.293,3.663 366.262,3.652 366.24,3.618 365.607,2.911 364.869,2.323 364.089,1.814 363.858,1.659 363.625,1.529 363.383,1.395 362.707,1.026 361.99,0.72 361.252,0.499 c -0.2,-0.056 -0.38,-0.138 -0.58,-0.19 C 359.87,0.119 359.037,0 358.193,0 H 97.2 C 85.282,0 75.6,9.693 75.6,21.601 V 197.014 H 62.377 c -17.049,0 -30.873,13.818 -30.873,30.873 v 160.545 c 0,17.043 13.824,30.87 30.873,30.87 H 75.601 V 529.2 c 0,11.907 9.682,21.601 21.6,21.601 h 356.4 c 11.907,0 21.6,-9.693 21.6,-21.601 V 419.302 h 13.226 c 17.044,0 30.871,-13.827 30.871,-30.87 V 227.892 C 519.297,210.838 505.47,197.019 488.426,197.019 Z M 97.2,21.605 h 250.193 v 110.513 c 0,5.967 4.841,10.8 10.8,10.8 H 453.6 v 54.108 H 97.2 Z m 265.159,287.418 c 0,30.876 -11.243,52.165 -26.82,65.333 -16.971,14.117 -42.82,20.814 -74.396,20.814 -18.9,0 -32.297,-1.197 -41.401,-2.389 V 234.365 c 13.399,-2.149 30.878,-3.346 49.304,-3.346 30.612,0 50.478,5.508 66.039,17.226 16.743,12.445 27.274,32.302 27.274,60.778 z M 80.7,393.499 V 234.365 c 11.241,-1.904 27.042,-3.346 49.296,-3.346 22.491,0 38.527,4.308 49.291,12.928 10.292,8.131 17.215,21.534 17.215,37.328 0,15.799 -5.25,29.198 -14.829,38.285 -12.442,11.728 -30.865,16.996 -52.407,16.996 -4.778,0 -9.1,-0.243 -12.435,-0.723 v 57.67 H 80.7 Z M 453.601,523.353 H 97.2 V 419.302 h 356.4 v 104.051 z m 31.297,-261.226 h -61.989 v 36.851 h 57.913 v 29.674 H 422.909 V 393.5 H 386.316 V 232.216 h 98.582 z"
           inkscape:connector-curvature="0" />
      </g>
      <g
         id="g3760" />
      <g
         id="g3762" />
      <g
         id="g3764" />
      <g
         id="g3767" />
      <g
         id="g3769" />
      <g
         id="g3771" />
      <g
         id="g3773" />
      <g
         id="g3775" />
      <g
         id="g3777" />
      <g
         id="g3779" />
      <g
         id="g3781" />
      <g
         id="g3783" />
      <g
         id="g3785" />
      <g
         id="g3787" />
      <g
         id="g3789" />
    </g>
    <g
       transform="matrix(0.13492155,0,0,0.13492155,-751.86079,325.08282)"
       id="g3791">
      <g
         id="g3793">
        <path
           inkscape:connector-curvature="0"
           d="m 160.381,282.225 c 0,-14.832 -10.299,-23.684 -28.474,-23.684 -7.414,0 -12.437,0.715 -15.071,1.432 V 307.6 c 3.114,0.707 6.942,0.949 12.192,0.949 19.391,0 31.353,-9.809 31.353,-26.324 z"
           id="path3795" />
        <path
           inkscape:connector-curvature="0"
           d="m 272.875,259.019 c -8.145,0 -13.397,0.717 -16.519,1.435 v 105.523 c 3.116,0.729 8.142,0.729 12.69,0.729 33.017,0.231 54.554,-17.946 54.554,-56.474 0.242,-33.513 -19.385,-51.213 -50.725,-51.213 z"
           id="path3797" />
        <path
           inkscape:connector-curvature="0"
           d="M 488.426,197.019 H 475.2 v -63.816 c 0,-0.398 -0.063,-0.799 -0.116,-1.202 -0.021,-2.534 -0.827,-5.023 -2.562,-6.995 L 366.325,3.694 C 366.293,3.663 366.262,3.652 366.24,3.618 365.607,2.911 364.869,2.323 364.089,1.814 363.858,1.659 363.625,1.529 363.383,1.395 362.707,1.026 361.99,0.72 361.252,0.499 c -0.2,-0.056 -0.38,-0.138 -0.58,-0.19 C 359.87,0.119 359.037,0 358.193,0 H 97.2 C 85.282,0 75.6,9.693 75.6,21.601 V 197.014 H 62.377 c -17.049,0 -30.873,13.818 -30.873,30.873 v 160.545 c 0,17.043 13.824,30.87 30.873,30.87 H 75.601 V 529.2 c 0,11.907 9.682,21.601 21.6,21.601 h 356.4 c 11.907,0 21.6,-9.693 21.6,-21.601 V 419.302 h 13.226 c 17.044,0 30.871,-13.827 30.871,-30.87 V 227.892 C 519.297,210.838 505.47,197.019 488.426,197.019 Z M 97.2,21.605 h 250.193 v 110.513 c 0,5.967 4.841,10.8 10.8,10.8 H 453.6 v 54.108 H 97.2 Z m 265.159,287.418 c 0,30.876 -11.243,52.165 -26.82,65.333 -16.971,14.117 -42.82,20.814 -74.396,20.814 -18.9,0 -32.297,-1.197 -41.401,-2.389 V 234.365 c 13.399,-2.149 30.878,-3.346 49.304,-3.346 30.612,0 50.478,5.508 66.039,17.226 16.743,12.445 27.274,32.302 27.274,60.778 z M 80.7,393.499 V 234.365 c 11.241,-1.904 27.042,-3.346 49.296,-3.346 22.491,0 38.527,4.308 49.291,12.928 10.292,8.131 17.215,21.534 17.215,37.328 0,15.799 -5.25,29.198 -14.829,38.285 -12.442,11.728 -30.865,16.996 -52.407,16.996 -4.778,0 -9.1,-0.243 -12.435,-0.723 v 57.67 H 80.7 Z M 453.601,523.353 H 97.2 V 419.302 h 356.4 v 104.051 z m 31.297,-261.226 h -61.989 v 36.851 h 57.913 v 29.674 H 422.909 V 393.5 H 386.316 V 232.216 h 98.582 z"
           id="path3799" />
      </g>
      <g
         id="g3801" />
      <g
         id="g3803" />
      <g
         id="g3805" />
      <g
         id="g3807" />
      <g
         id="g3809" />
      <g
         id="g3811" />
      <g
         id="g3813" />
      <g
         id="g3815" />
      <g
         id="g3817" />
      <g
         id="g3819" />
      <g
         id="g3821" />
      <g
         id="g3823" />
      <g
         id="g3825" />
      <g
         id="g3827" />
      <g
         id="g3829" />
    </g>
    <g
       id="g3831"
       transform="matrix(0.13492155,0,0,0.13492155,-951.86079,225.08282)">
      <g
         id="g3833">
        <path
           id="path3835"
           d="m 160.381,282.225 c 0,-14.832 -10.299,-23.684 -28.474,-23.684 -7.414,0 -12.437,0.715 -15.071,1.432 V 307.6 c 3.114,0.707 6.942,0.949 12.192,0.949 19.391,0 31.353,-9.809 31.353,-26.324 z"
           inkscape:connector-curvature="0" />
        <path
           id="path3837"
           d="m 272.875,259.019 c -8.145,0 -13.397,0.717 -16.519,1.435 v 105.523 c 3.116,0.729 8.142,0.729 12.69,0.729 33.017,0.231 54.554,-17.946 54.554,-56.474 0.242,-33.513 -19.385,-51.213 -50.725,-51.213 z"
           inkscape:connector-curvature="0" />
        <path
           id="path3839"
           d="M 488.426,197.019 H 475.2 v -63.816 c 0,-0.398 -0.063,-0.799 -0.116,-1.202 -0.021,-2.534 -0.827,-5.023 -2.562,-6.995 L 366.325,3.694 C 366.293,3.663 366.262,3.652 366.24,3.618 365.607,2.911 364.869,2.323 364.089,1.814 363.858,1.659 363.625,1.529 363.383,1.395 362.707,1.026 361.99,0.72 361.252,0.499 c -0.2,-0.056 -0.38,-0.138 -0.58,-0.19 C 359.87,0.119 359.037,0 358.193,0 H 97.2 C 85.282,0 75.6,9.693 75.6,21.601 V 197.014 H 62.377 c -17.049,0 -30.873,13.818 -30.873,30.873 v 160.545 c 0,17.043 13.824,30.87 30.873,30.87 H 75.601 V 529.2 c 0,11.907 9.682,21.601 21.6,21.601 h 356.4 c 11.907,0 21.6,-9.693 21.6,-21.601 V 419.302 h 13.226 c 17.044,0 30.871,-13.827 30.871,-30.87 V 227.892 C 519.297,210.838 505.47,197.019 488.426,197.019 Z M 97.2,21.605 h 250.193 v 110.513 c 0,5.967 4.841,10.8 10.8,10.8 H 453.6 v 54.108 H 97.2 Z m 265.159,287.418 c 0,30.876 -11.243,52.165 -26.82,65.333 -16.971,14.117 -42.82,20.814 -74.396,20.814 -18.9,0 -32.297,-1.197 -41.401,-2.389 V 234.365 c 13.399,-2.149 30.878,-3.346 49.304,-3.346 30.612,0 50.478,5.508 66.039,17.226 16.743,12.445 27.274,32.302 27.274,60.778 z M 80.7,393.499 V 234.365 c 11.241,-1.904 27.042,-3.346 49.296,-3.346 22.491,0 38.527,4.308 49.291,12.928 10.292,8.131 17.215,21.534 17.215,37.328 0,15.799 -5.25,29.198 -14.829,38.285 -12.442,11.728 -30.865,16.996 -52.407,16.996 -4.778,0 -9.1,-0.243 -12.435,-0.723 v 57.67 H 80.7 Z M 453.601,523.353 H 97.2 V 419.302 h 356.4 v 104.051 z m 31.297,-261.226 h -61.989 v 36.851 h 57.913 v 29.674 H 422.909 V 393.5 H 386.316 V 232.216 h 98.582 z"
           inkscape:connector-curvature="0" />
      </g>
      <g
         id="g3841" />
      <g
         id="g3843" />
      <g
         id="g3845" />
      <g
         id="g3847" />
      <g
         id="g3849" />
      <g
         id="g3851" />
      <g
         id="g3853" />
      <g
         id="g3855" />
      <g
         id="g3857" />
      <g
         id="g3859" />
      <g
         id="g3861" />
      <g
         id="g3863" />
      <g
         id="g3865" />
      <g
         id="g3867" />
      <g
         id="g3869" />
    </g>
    <g
       transform="matrix(0.13492155,0,0,0.13492155,-851.86079,225.08282)"
       id="g3871">
      <g
         id="g3873">
        <path
           inkscape:connector-curvature="0"
           d="m 160.381,282.225 c 0,-14.832 -10.299,-23.684 -28.474,-23.684 -7.414,0 -12.437,0.715 -15.071,1.432 V 307.6 c 3.114,0.707 6.942,0.949 12.192,0.949 19.391,0 31.353,-9.809 31.353,-26.324 z"
           id="path3875" />
        <path
           inkscape:connector-curvature="0"
           d="m 272.875,259.019 c -8.145,0 -13.397,0.717 -16.519,1.435 v 105.523 c 3.116,0.729 8.142,0.729 12.69,0.729 33.017,0.231 54.554,-17.946 54.554,-56.474 0.242,-33.513 -19.385,-51.213 -50.725,-51.213 z"
           id="path3877" />
        <path
           inkscape:connector-curvature="0"
           d="M 488.426,197.019 H 475.2 v -63.816 c 0,-0.398 -0.063,-0.799 -0.116,-1.202 -0.021,-2.534 -0.827,-5.023 -2.562,-6.995 L 366.325,3.694 C 366.293,3.663 366.262,3.652 366.24,3.618 365.607,2.911 364.869,2.323 364.089,1.814 363.858,1.659 363.625,1.529 363.383,1.395 362.707,1.026 361.99,0.72 361.252,0.499 c -0.2,-0.056 -0.38,-0.138 -0.58,-0.19 C 359.87,0.119 359.037,0 358.193,0 H 97.2 C 85.282,0 75.6,9.693 75.6,21.601 V 197.014 H 62.377 c -17.049,0 -30.873,13.818 -30.873,30.873 v 160.545 c 0,17.043 13.824,30.87 30.873,30.87 H 75.601 V 529.2 c 0,11.907 9.682,21.601 21.6,21.601 h 356.4 c 11.907,0 21.6,-9.693 21.6,-21.601 V 419.302 h 13.226 c 17.044,0 30.871,-13.827 30.871,-30.87 V 227.892 C 519.297,210.838 505.47,197.019 488.426,197.019 Z M 97.2,21.605 h 250.193 v 110.513 c 0,5.967 4.841,10.8 10.8,10.8 H 453.6 v 54.108 H 97.2 Z m 265.159,287.418 c 0,30.876 -11.243,52.165 -26.82,65.333 -16.971,14.117 -42.82,20.814 -74.396,20.814 -18.9,0 -32.297,-1.197 -41.401,-2.389 V 234.365 c 13.399,-2.149 30.878,-3.346 49.304,-3.346 30.612,0 50.478,5.508 66.039,17.226 16.743,12.445 27.274,32.302 27.274,60.778 z M 80.7,393.499 V 234.365 c 11.241,-1.904 27.042,-3.346 49.296,-3.346 22.491,0 38.527,4.308 49.291,12.928 10.292,8.131 17.215,21.534 17.215,37.328 0,15.799 -5.25,29.198 -14.829,38.285 -12.442,11.728 -30.865,16.996 -52.407,16.996 -4.778,0 -9.1,-0.243 -12.435,-0.723 v 57.67 H 80.7 Z M 453.601,523.353 H 97.2 V 419.302 h 356.4 v 104.051 z m 31.297,-261.226 h -61.989 v 36.851 h 57.913 v 29.674 H 422.909 V 393.5 H 386.316 V 232.216 h 98.582 z"
           id="path3879" />
      </g>
      <g
         id="g3881" />
      <g
         id="g3883" />
      <g
         id="g3885" />
      <g
         id="g3887" />
      <g
         id="g3889" />
      <g
         id="g3891" />
      <g
         id="g3893" />
      <g
         id="g3895" />
      <g
         id="g3897" />
      <g
         id="g3899" />
      <g
         id="g3901" />
      <g
         id="g3903" />
      <g
         id="g3905" />
      <g
         id="g3907" />
      <g
         id="g3909" />
    </g>
    <g
       id="g3911"
       transform="matrix(0.13492155,0,0,0.13492155,-751.86079,225.08282)">
      <g
         id="g3913">
        <path
           id="path3915"
           d="m 160.381,282.225 c 0,-14.832 -10.299,-23.684 -28.474,-23.684 -7.414,0 -12.437,0.715 -15.071,1.432 V 307.6 c 3.114,0.707 6.942,0.949 12.192,0.949 19.391,0 31.353,-9.809 31.353,-26.324 z"
           inkscape:connector-curvature="0" />
        <path
           id="path3917"
           d="m 272.875,259.019 c -8.145,0 -13.397,0.717 -16.519,1.435 v 105.523 c 3.116,0.729 8.142,0.729 12.69,0.729 33.017,0.231 54.554,-17.946 54.554,-56.474 0.242,-33.513 -19.385,-51.213 -50.725,-51.213 z"
           inkscape:connector-curvature="0" />
        <path
           id="path3919"
           d="M 488.426,197.019 H 475.2 v -63.816 c 0,-0.398 -0.063,-0.799 -0.116,-1.202 -0.021,-2.534 -0.827,-5.023 -2.562,-6.995 L 366.325,3.694 C 366.293,3.663 366.262,3.652 366.24,3.618 365.607,2.911 364.869,2.323 364.089,1.814 363.858,1.659 363.625,1.529 363.383,1.395 362.707,1.026 361.99,0.72 361.252,0.499 c -0.2,-0.056 -0.38,-0.138 -0.58,-0.19 C 359.87,0.119 359.037,0 358.193,0 H 97.2 C 85.282,0 75.6,9.693 75.6,21.601 V 197.014 H 62.377 c -17.049,0 -30.873,13.818 -30.873,30.873 v 160.545 c 0,17.043 13.824,30.87 30.873,30.87 H 75.601 V 529.2 c 0,11.907 9.682,21.601 21.6,21.601 h 356.4 c 11.907,0 21.6,-9.693 21.6,-21.601 V 419.302 h 13.226 c 17.044,0 30.871,-13.827 30.871,-30.87 V 227.892 C 519.297,210.838 505.47,197.019 488.426,197.019 Z M 97.2,21.605 h 250.193 v 110.513 c 0,5.967 4.841,10.8 10.8,10.8 H 453.6 v 54.108 H 97.2 Z m 265.159,287.418 c 0,30.876 -11.243,52.165 -26.82,65.333 -16.971,14.117 -42.82,20.814 -74.396,20.814 -18.9,0 -32.297,-1.197 -41.401,-2.389 V 234.365 c 13.399,-2.149 30.878,-3.346 49.304,-3.346 30.612,0 50.478,5.508 66.039,17.226 16.743,12.445 27.274,32.302 27.274,60.778 z M 80.7,393.499 V 234.365 c 11.241,-1.904 27.042,-3.346 49.296,-3.346 22.491,0 38.527,4.308 49.291,12.928 10.292,8.131 17.215,21.534 17.215,37.328 0,15.799 -5.25,29.198 -14.829,38.285 -12.442,11.728 -30.865,16.996 -52.407,16.996 -4.778,0 -9.1,-0.243 -12.435,-0.723 v 57.67 H 80.7 Z M 453.601,523.353 H 97.2 V 419.302 h 356.4 v 104.051 z m 31.297,-261.226 h -61.989 v 36.851 h 57.913 v 29.674 H 422.909 V 393.5 H 386.316 V 232.216 h 98.582 z"
           inkscape:connector-curvature="0" />
      </g>
      <g
         id="g3921" />
      <g
         id="g3923" />
      <g
         id="g3925" />
      <g
         id="g3927" />
      <g
         id="g3929" />
      <g
         id="g3931" />
      <g
         id="g3933" />
      <g
         id="g3935" />
      <g
         id="g3937" />
      <g
         id="g3939" />
      <g
         id="g3941" />
      <g
         id="g3943" />
      <g
         id="g3945" />
      <g
         id="g3947" />
      <g
         id="g3949" />
    </g>
    <g
       id="g3951"
       transform="matrix(0.44127391,0,0,0.45263409,990.1418,332.9667)">
      <path
         inkscape:export-xdpi="69"
         inkscape:export-filename="/home/leandro/Área de Trabalho/box.png"
         sodipodi:nodetypes="ccccc"
         inkscape:export-ydpi="69"
         d="M 55.665,34.471 79.063,49.303 237.463,33.544 205.243,22.648 55.663,34.471 Z"
         style="fill:url(#linearGradient4021);fill-rule:evenodd"
         id="path3953"
         inkscape:connector-curvature="0" />
      <path
         inkscape:export-xdpi="69"
         inkscape:export-filename="/home/leandro/Área de Trabalho/box.png"
         sodipodi:nodetypes="ccccc"
         inkscape:export-ydpi="69"
         d="m 230.05,235.69 -142.8,35.23 -8.346,-221.61 158.57,-15.767 -7.42,202.15 z"
         style="fill:#729fcf;fill-rule:evenodd"
         id="path3955"
         inkscape:connector-curvature="0" />
      <path
         inkscape:export-xdpi="69"
         inkscape:export-filename="/home/leandro/Área de Trabalho/box.png"
         sodipodi:nodetypes="ccccc"
         inkscape:export-ydpi="69"
         d="M 87.617,270.95 64.147,234.76 55.723,34.47 79.125,49.307 87.617,270.947 Z"
         style="fill:#216778;fill-rule:evenodd"
         id="path3957"
         inkscape:connector-curvature="0" />
      <ellipse
         inkscape:export-xdpi="69"
         transform="matrix(1.6257,-1.1039,1.0335,1.7364,-875.9,-286.88)"
         inkscape:export-filename="/home/leandro/Área de Trabalho/box.png"
         inkscape:export-ydpi="69"
         style="fill:#a9a9a9;fill-rule:evenodd;filter:url(#filter14892)"
         id="ellipse3959"
         cx="275.01404"
         cy="481.87854"
         rx="8.3337584"
         ry="13.889598" />
      <path
         inkscape:export-xdpi="69"
         transform="matrix(1.8359,0,0,1.8359,-654.18,-642.96)"
         inkscape:export-filename="/home/leandro/Área de Trabalho/box.png"
         sodipodi:nodetypes="cccc"
         inkscape:export-ydpi="69"
         d="m 390.44,478.87 13.069,19.856 79.692,-20.093 -92.76,0.23676 z"
         style="fill:#696969;fill-rule:evenodd;filter:url(#filter12921)"
         id="path3961"
         inkscape:connector-curvature="0" />
      <path
         inkscape:export-xdpi="69"
         inkscape:export-filename="/home/leandro/Área de Trabalho/box.png"
         sodipodi:nodetypes="ccccc"
         inkscape:export-ydpi="69"
         d="m 231.45,197.27 -1.4306,38.423 -142.74,35.208 -1.579,-42.243 145.75,-31.388 z"
         style="fill:#dcdcdc;fill-rule:evenodd"
         id="path3963"
         inkscape:connector-curvature="0" />
      <path
         inkscape:export-xdpi="69"
         inkscape:export-filename="/home/leandro/Área de Trabalho/box.png"
         sodipodi:nodetypes="ccccc"
         inkscape:export-ydpi="69"
         d="m 87.286,270.9 -23.211,-35.08 -1.545,-39.41 23.179,32.236 1.5776,42.249 z"
         style="fill:#c0c0c0;fill-rule:evenodd"
         id="path3965"
         inkscape:connector-curvature="0" />
      <path
         inkscape:export-xdpi="69"
         inkscape:export-filename="/home/leandro/Área de Trabalho/box.png"
         sodipodi:nodetypes="ccccc"
         inkscape:export-ydpi="69"
         d="M 237.24,39.574 235.56,85.34 81.22,104.14 79.268,54.423 237.238,39.574 Z"
         style="fill:#dcdcdc;fill-rule:evenodd"
         id="path3967"
         inkscape:connector-curvature="0" />
      <path
         inkscape:export-xdpi="69"
         inkscape:export-filename="/home/leandro/Área de Trabalho/box.png"
         sodipodi:nodetypes="ccccc"
         inkscape:export-ydpi="69"
         d="M 81.227,104.14 57.863,86.092 55.906,38.847 l 23.401,15.576 1.9192,49.718 z"
         style="fill:#c0c0c0;fill-rule:evenodd"
         id="path3969"
         inkscape:connector-curvature="0" />
      <g
         inkscape:export-filename="/home/leandro/Área de Trabalho/box.png"
         inkscape:export-xdpi="69"
         inkscape:export-ydpi="69"
         id="g3971">
        <rect
           x="126.89"
           y="101.62"
           width="22.261999"
           height="9.3542995"
           transform="matrix(0.50945,0.8605,0.024265,0.99971,0,0)"
           style="fill:#cccccc;stroke:#666666;stroke-width:0.25228345;stroke-linejoin:round"
           id="rect3973" />
        <rect
           x="128.74001"
           y="102.37"
           width="0.28507999"
           height="7.1564999"
           ry="0"
           transform="matrix(0.50945,0.8605,0.024265,0.99971,0,0)"
           style="fill:#000000;stroke:#0e0101;stroke-width:0.05319769;stroke-linejoin:round"
           id="rect3975" />
        <rect
           x="129.24001"
           y="102.37"
           width="0.28507999"
           height="7.1564999"
           ry="0"
           transform="matrix(0.50945,0.8605,0.024265,0.99971,0,0)"
           style="fill:#000000;stroke:#0e0101;stroke-width:0.05319769;stroke-linejoin:round"
           id="rect3977" />
        <rect
           x="130.25"
           y="102.37"
           width="0.28639001"
           height="6.3628001"
           ry="0"
           transform="matrix(0.50945,0.8605,0.024265,0.99971,0,0)"
           style="fill:#000000;stroke:#0e0101;stroke-width:0.05027545;stroke-linejoin:round"
           id="rect3979" />
        <rect
           x="130.75999"
           y="102.37"
           width="0.57007003"
           height="6.3575001"
           ry="0"
           transform="matrix(0.50945,0.8605,0.024265,0.99971,0,0)"
           style="fill:#000000;stroke:#0e0101;stroke-width:0.07090341;stroke-linejoin:round"
           id="rect3981" />
        <rect
           x="131.75"
           y="102.37"
           width="0.19343001"
           height="6.3650999"
           ry="0"
           transform="matrix(0.50945,0.8605,0.024265,0.99971,0,0)"
           style="fill:#000000;stroke:#0e0101;stroke-width:0.04132526;stroke-linejoin:round"
           id="rect3983" />
        <rect
           x="132.75999"
           y="102.37"
           width="0.57007003"
           height="6.3575001"
           ry="0"
           transform="matrix(0.50945,0.8605,0.024265,0.99971,0,0)"
           style="fill:#000000;stroke:#0e0101;stroke-width:0.07090341;stroke-linejoin:round"
           id="rect3985" />
        <rect
           x="133.77"
           y="102.37"
           width="0.47497001"
           height="6.3590999"
           ry="0"
           transform="matrix(0.50945,0.8605,0.024265,0.99971,0,0)"
           style="fill:#000000;stroke:#0e0101;stroke-width:0.06472553;stroke-linejoin:round"
           id="rect3987" />
        <rect
           x="134.75999"
           y="102.37"
           width="0.19343001"
           height="6.3650999"
           ry="0"
           transform="matrix(0.50945,0.8605,0.024265,0.99971,0,0)"
           style="fill:#000000;stroke:#0e0101;stroke-width:0.04132526;stroke-linejoin:round"
           id="rect3989" />
        <rect
           x="135.25999"
           y="102.37"
           width="0.19343001"
           height="6.3650999"
           ry="0"
           transform="matrix(0.50945,0.8605,0.024265,0.99971,0,0)"
           style="fill:#000000;stroke:#0e0101;stroke-width:0.04132526;stroke-linejoin:round"
           id="rect3991" />
        <rect
           x="135.75999"
           y="102.37"
           width="0.19343001"
           height="6.3650999"
           ry="0"
           transform="matrix(0.50945,0.8605,0.024265,0.99971,0,0)"
           style="fill:#000000;stroke:#0e0101;stroke-width:0.04132526;stroke-linejoin:round"
           id="rect3993" />
        <rect
           x="136.78"
           y="102.37"
           width="0.66553998"
           height="6.3559999"
           ry="0"
           transform="matrix(0.50945,0.8605,0.024265,0.99971,0,0)"
           style="fill:#000000;stroke:#0e0101;stroke-width:0.07660019;stroke-linejoin:round"
           id="rect3995" />
        <rect
           x="138.17999"
           y="102.37"
           width="0.28639001"
           height="6.3628001"
           ry="0"
           transform="matrix(0.50945,0.8605,0.024265,0.99971,0,0)"
           style="fill:#000000;stroke:#0e0101;stroke-width:0.05027545;stroke-linejoin:round"
           id="rect3997" />
        <rect
           x="138.67999"
           y="102.37"
           width="0.28639001"
           height="6.3628001"
           ry="0"
           transform="matrix(0.50945,0.8605,0.024265,0.99971,0,0)"
           style="fill:#000000;stroke:#0e0101;stroke-width:0.05027545;stroke-linejoin:round"
           id="rect3999" />
        <rect
           x="139.44"
           y="102.37"
           width="0.66553998"
           height="6.3559999"
           ry="0"
           transform="matrix(0.50945,0.8605,0.024265,0.99971,0,0)"
           style="fill:#000000;stroke:#0e0101;stroke-width:0.07660019;stroke-linejoin:round"
           id="rect4001" />
        <rect
           x="141.17999"
           y="102.37"
           width="0.19343001"
           height="6.3650999"
           ry="0"
           transform="matrix(0.50945,0.8605,0.024265,0.99971,0,0)"
           style="fill:#000000;stroke:#0e0101;stroke-width:0.04132526;stroke-linejoin:round"
           id="rect4003" />
        <rect
           x="141.67999"
           y="102.37"
           width="0.19312"
           height="7.1591001"
           ry="0"
           transform="matrix(0.50945,0.8605,0.024265,0.99971,0,0)"
           style="fill:#000000;stroke:#0e0101;stroke-width:0.04379328;stroke-linejoin:round"
           id="rect4005" />
        <rect
           x="142.19"
           y="102.37"
           width="0.19312"
           height="7.1591001"
           ry="0"
           transform="matrix(0.50945,0.8605,0.024265,0.99971,0,0)"
           style="fill:#000000;stroke:#0e0101;stroke-width:0.04379328;stroke-linejoin:round"
           id="rect4007" />
        <rect
           x="143.19"
           y="102.37"
           width="0.19343001"
           height="6.3650999"
           ry="0"
           transform="matrix(0.50945,0.8605,0.024265,0.99971,0,0)"
           style="fill:#000000;stroke:#0e0101;stroke-width:0.04132526;stroke-linejoin:round"
           id="rect4009" />
        <rect
           x="143.7"
           y="102.37"
           width="0.57007003"
           height="6.3575001"
           ry="0"
           transform="matrix(0.50945,0.8605,0.024265,0.99971,0,0)"
           style="fill:#000000;stroke:#0e0101;stroke-width:0.07090341;stroke-linejoin:round"
           id="rect4011" />
        <rect
           x="144.71001"
           y="102.37"
           width="0.57007003"
           height="6.3575001"
           ry="0"
           transform="matrix(0.50945,0.8605,0.024265,0.99971,0,0)"
           style="fill:#000000;stroke:#0e0101;stroke-width:0.07090341;stroke-linejoin:round"
           id="rect4013" />
        <rect
           x="145.60001"
           y="102.36"
           width="0.18463001"
           height="6.3710999"
           ry="0"
           transform="matrix(0.50945,0.8605,0.024265,0.99971,0,0)"
           style="fill:#000000;stroke:#0e0101;stroke-width:0.04039444;stroke-linejoin:round"
           id="rect4015" />
        <rect
           x="146.10001"
           y="102.36"
           width="0.18463001"
           height="6.3710999"
           ry="0"
           transform="matrix(0.50945,0.8605,0.024265,0.99971,0,0)"
           style="fill:#000000;stroke:#0e0101;stroke-width:0.04039444;stroke-linejoin:round"
           id="rect4017" />
        <rect
           x="146.61"
           y="102.37"
           width="0.57007003"
           height="6.3575001"
           ry="0"
           transform="matrix(0.50945,0.8605,0.024265,0.99971,0,0)"
           style="fill:#000000;stroke:#0e0101;stroke-width:0.07090341;stroke-linejoin:round"
           id="rect4019" />
      </g>
    </g>
    <rect
       style="color:#000000;clip-rule:nonzero;display:inline;overflow:visible;visibility:visible;opacity:1;isolation:auto;mix-blend-mode:normal;color-interpolation:sRGB;color-interpolation-filters:linearRGB;solid-color:#000000;solid-opacity:1;fill:#555753;fill-opacity:1;fill-rule:evenodd;stroke:#000000;stroke-width:3.75000001;stroke-linecap:butt;stroke-linejoin:miter;stroke-miterlimit:4;stroke-dasharray:none;stroke-dashoffset:0;stroke-opacity:1;color-rendering:auto;image-rendering:auto;shape-rendering:auto;text-rendering:auto;enable-background:accumulate"
       id="rect4025"
       width="379.64789"
       height="231.64957"
       x="360.99554"
       y="303.24136" />
    <path
       sodipodi:nodetypes="cc"
       inkscape:connector-curvature="0"
       id="path5427"
       d="m 810.96098,409.59049 16.59729,0.61252"
       style="fill:#888a85;fill-rule:evenodd;stroke:#888a85;stroke-width:4.00000048;stroke-linecap:butt;stroke-linejoin:miter;stroke-miterlimit:4;stroke-dasharray:16.00000095, 16.00000095;stroke-dashoffset:0;stroke-opacity:1;marker-end:url(#marker5429)" />
    <text
       id="text5695"
       y="436.58566"
       x="381.76187"
       style="font-style:normal;font-weight:normal;line-height:0%;font-family:sans-serif;letter-spacing:0px;word-spacing:0px;fill:#ffffff;fill-opacity:1;stroke:none;stroke-width:1px;stroke-linecap:butt;stroke-linejoin:miter;stroke-opacity:1"
       xml:space="preserve"><tspan
         style="font-style:normal;font-variant:normal;font-weight:normal;font-stretch:normal;font-size:60px;line-height:1.25;font-family:sans-serif;-inkscape-font-specification:sans-serif;fill:#ffffff"
         y="436.58566"
         x="381.76187"
         id="tspan5697"
         sodipodi:role="line">(3) Seleção</tspan></text>
    <rect
       y="303.24136"
       x="-1460.7545"
       height="231.64957"
       width="379.64789"
       id="rect3565"
       style="color:#000000;clip-rule:nonzero;display:inline;overflow:visible;visibility:visible;opacity:1;isolation:auto;mix-blend-mode:normal;color-interpolation:sRGB;color-interpolation-filters:linearRGB;solid-color:#000000;solid-opacity:1;fill:#555753;fill-opacity:1;fill-rule:evenodd;stroke:#000000;stroke-width:3.75000001;stroke-linecap:butt;stroke-linejoin:miter;stroke-miterlimit:4;stroke-dasharray:none;stroke-dashoffset:0;stroke-opacity:1;color-rendering:auto;image-rendering:auto;shape-rendering:auto;text-rendering:auto;enable-background:accumulate" />
    <text
       id="text3567"
       y="437.90402"
       x="-1413.3866"
       style="font-style:normal;font-weight:normal;line-height:0%;font-family:sans-serif;letter-spacing:0px;word-spacing:0px;fill:#ffffff;fill-opacity:1;stroke:none;stroke-width:1px;stroke-linecap:butt;stroke-linejoin:miter;stroke-opacity:1"
       xml:space="preserve"><tspan
         style="font-style:normal;font-variant:normal;font-weight:normal;font-stretch:normal;font-size:60px;line-height:1.25;font-family:sans-serif;-inkscape-font-specification:sans-serif;fill:#ffffff"
         y="437.90402"
         x="-1413.3866"
         id="tspan3569"
         sodipodi:role="line">(1) Busca</tspan></text>
    <path
       sodipodi:nodetypes="cc"
       inkscape:connector-curvature="0"
       id="path3575"
       d="m -1010.6518,409.59049 16.59727,0.61252"
       style="fill:#888a85;fill-rule:evenodd;stroke:#888a85;stroke-width:4.00000048;stroke-linecap:butt;stroke-linejoin:miter;stroke-miterlimit:4;stroke-dasharray:16.00000095, 16.00000095;stroke-dashoffset:0;stroke-opacity:1;marker-end:url(#Arrow2Lend)" />
    <g
       id="g281"
       transform="matrix(0.13492155,0,0,0.13492155,-951.86079,525.70782)">
      <g
         id="g249">
        <path
           id="path243"
           d="m 160.381,282.225 c 0,-14.832 -10.299,-23.684 -28.474,-23.684 -7.414,0 -12.437,0.715 -15.071,1.432 V 307.6 c 3.114,0.707 6.942,0.949 12.192,0.949 19.391,0 31.353,-9.809 31.353,-26.324 z"
           inkscape:connector-curvature="0" />
        <path
           id="path245"
           d="m 272.875,259.019 c -8.145,0 -13.397,0.717 -16.519,1.435 v 105.523 c 3.116,0.729 8.142,0.729 12.69,0.729 33.017,0.231 54.554,-17.946 54.554,-56.474 0.242,-33.513 -19.385,-51.213 -50.725,-51.213 z"
           inkscape:connector-curvature="0" />
        <path
           id="path247"
           d="M 488.426,197.019 H 475.2 v -63.816 c 0,-0.398 -0.063,-0.799 -0.116,-1.202 -0.021,-2.534 -0.827,-5.023 -2.562,-6.995 L 366.325,3.694 C 366.293,3.663 366.262,3.652 366.24,3.618 365.607,2.911 364.869,2.323 364.089,1.814 363.858,1.659 363.625,1.529 363.383,1.395 362.707,1.026 361.99,0.72 361.252,0.499 c -0.2,-0.056 -0.38,-0.138 -0.58,-0.19 C 359.87,0.119 359.037,0 358.193,0 H 97.2 C 85.282,0 75.6,9.693 75.6,21.601 V 197.014 H 62.377 c -17.049,0 -30.873,13.818 -30.873,30.873 v 160.545 c 0,17.043 13.824,30.87 30.873,30.87 H 75.601 V 529.2 c 0,11.907 9.682,21.601 21.6,21.601 h 356.4 c 11.907,0 21.6,-9.693 21.6,-21.601 V 419.302 h 13.226 c 17.044,0 30.871,-13.827 30.871,-30.87 V 227.892 C 519.297,210.838 505.47,197.019 488.426,197.019 Z M 97.2,21.605 h 250.193 v 110.513 c 0,5.967 4.841,10.8 10.8,10.8 H 453.6 v 54.108 H 97.2 Z m 265.159,287.418 c 0,30.876 -11.243,52.165 -26.82,65.333 -16.971,14.117 -42.82,20.814 -74.396,20.814 -18.9,0 -32.297,-1.197 -41.401,-2.389 V 234.365 c 13.399,-2.149 30.878,-3.346 49.304,-3.346 30.612,0 50.478,5.508 66.039,17.226 16.743,12.445 27.274,32.302 27.274,60.778 z M 80.7,393.499 V 234.365 c 11.241,-1.904 27.042,-3.346 49.296,-3.346 22.491,0 38.527,4.308 49.291,12.928 10.292,8.131 17.215,21.534 17.215,37.328 0,15.799 -5.25,29.198 -14.829,38.285 -12.442,11.728 -30.865,16.996 -52.407,16.996 -4.778,0 -9.1,-0.243 -12.435,-0.723 v 57.67 H 80.7 Z M 453.601,523.353 H 97.2 V 419.302 h 356.4 v 104.051 z m 31.297,-261.226 h -61.989 v 36.851 h 57.913 v 29.674 H 422.909 V 393.5 H 386.316 V 232.216 h 98.582 z"
           inkscape:connector-curvature="0" />
      </g>
      <g
         id="g251" />
      <g
         id="g253" />
      <g
         id="g255" />
      <g
         id="g257" />
      <g
         id="g259" />
      <g
         id="g261" />
      <g
         id="g263" />
      <g
         id="g265" />
      <g
         id="g267" />
      <g
         id="g269" />
      <g
         id="g271" />
      <g
         id="g273" />
      <g
         id="g275" />
      <g
         id="g277" />
      <g
         id="g279" />
    </g>
    <g
       transform="matrix(0.13492155,0,0,0.13492155,-851.86079,525.70782)"
       id="g321">
      <g
         id="g289">
        <path
           inkscape:connector-curvature="0"
           d="m 160.381,282.225 c 0,-14.832 -10.299,-23.684 -28.474,-23.684 -7.414,0 -12.437,0.715 -15.071,1.432 V 307.6 c 3.114,0.707 6.942,0.949 12.192,0.949 19.391,0 31.353,-9.809 31.353,-26.324 z"
           id="path283" />
        <path
           inkscape:connector-curvature="0"
           d="m 272.875,259.019 c -8.145,0 -13.397,0.717 -16.519,1.435 v 105.523 c 3.116,0.729 8.142,0.729 12.69,0.729 33.017,0.231 54.554,-17.946 54.554,-56.474 0.242,-33.513 -19.385,-51.213 -50.725,-51.213 z"
           id="path285" />
        <path
           inkscape:connector-curvature="0"
           d="M 488.426,197.019 H 475.2 v -63.816 c 0,-0.398 -0.063,-0.799 -0.116,-1.202 -0.021,-2.534 -0.827,-5.023 -2.562,-6.995 L 366.325,3.694 C 366.293,3.663 366.262,3.652 366.24,3.618 365.607,2.911 364.869,2.323 364.089,1.814 363.858,1.659 363.625,1.529 363.383,1.395 362.707,1.026 361.99,0.72 361.252,0.499 c -0.2,-0.056 -0.38,-0.138 -0.58,-0.19 C 359.87,0.119 359.037,0 358.193,0 H 97.2 C 85.282,0 75.6,9.693 75.6,21.601 V 197.014 H 62.377 c -17.049,0 -30.873,13.818 -30.873,30.873 v 160.545 c 0,17.043 13.824,30.87 30.873,30.87 H 75.601 V 529.2 c 0,11.907 9.682,21.601 21.6,21.601 h 356.4 c 11.907,0 21.6,-9.693 21.6,-21.601 V 419.302 h 13.226 c 17.044,0 30.871,-13.827 30.871,-30.87 V 227.892 C 519.297,210.838 505.47,197.019 488.426,197.019 Z M 97.2,21.605 h 250.193 v 110.513 c 0,5.967 4.841,10.8 10.8,10.8 H 453.6 v 54.108 H 97.2 Z m 265.159,287.418 c 0,30.876 -11.243,52.165 -26.82,65.333 -16.971,14.117 -42.82,20.814 -74.396,20.814 -18.9,0 -32.297,-1.197 -41.401,-2.389 V 234.365 c 13.399,-2.149 30.878,-3.346 49.304,-3.346 30.612,0 50.478,5.508 66.039,17.226 16.743,12.445 27.274,32.302 27.274,60.778 z M 80.7,393.499 V 234.365 c 11.241,-1.904 27.042,-3.346 49.296,-3.346 22.491,0 38.527,4.308 49.291,12.928 10.292,8.131 17.215,21.534 17.215,37.328 0,15.799 -5.25,29.198 -14.829,38.285 -12.442,11.728 -30.865,16.996 -52.407,16.996 -4.778,0 -9.1,-0.243 -12.435,-0.723 v 57.67 H 80.7 Z M 453.601,523.353 H 97.2 V 419.302 h 356.4 v 104.051 z m 31.297,-261.226 h -61.989 v 36.851 h 57.913 v 29.674 H 422.909 V 393.5 H 386.316 V 232.216 h 98.582 z"
           id="path287" />
      </g>
      <g
         id="g291" />
      <g
         id="g293" />
      <g
         id="g295" />
      <g
         id="g297" />
      <g
         id="g299" />
      <g
         id="g301" />
      <g
         id="g303" />
      <g
         id="g305" />
      <g
         id="g307" />
      <g
         id="g309" />
      <g
         id="g311" />
      <g
         id="g313" />
      <g
         id="g315" />
      <g
         id="g317" />
      <g
         id="g319" />
    </g>
    <g
       id="g361"
       transform="matrix(0.13492155,0,0,0.13492155,-751.86079,525.70782)">
      <g
         id="g329">
        <path
           id="path323"
           d="m 160.381,282.225 c 0,-14.832 -10.299,-23.684 -28.474,-23.684 -7.414,0 -12.437,0.715 -15.071,1.432 V 307.6 c 3.114,0.707 6.942,0.949 12.192,0.949 19.391,0 31.353,-9.809 31.353,-26.324 z"
           inkscape:connector-curvature="0" />
        <path
           id="path325"
           d="m 272.875,259.019 c -8.145,0 -13.397,0.717 -16.519,1.435 v 105.523 c 3.116,0.729 8.142,0.729 12.69,0.729 33.017,0.231 54.554,-17.946 54.554,-56.474 0.242,-33.513 -19.385,-51.213 -50.725,-51.213 z"
           inkscape:connector-curvature="0" />
        <path
           id="path327"
           d="M 488.426,197.019 H 475.2 v -63.816 c 0,-0.398 -0.063,-0.799 -0.116,-1.202 -0.021,-2.534 -0.827,-5.023 -2.562,-6.995 L 366.325,3.694 C 366.293,3.663 366.262,3.652 366.24,3.618 365.607,2.911 364.869,2.323 364.089,1.814 363.858,1.659 363.625,1.529 363.383,1.395 362.707,1.026 361.99,0.72 361.252,0.499 c -0.2,-0.056 -0.38,-0.138 -0.58,-0.19 C 359.87,0.119 359.037,0 358.193,0 H 97.2 C 85.282,0 75.6,9.693 75.6,21.601 V 197.014 H 62.377 c -17.049,0 -30.873,13.818 -30.873,30.873 v 160.545 c 0,17.043 13.824,30.87 30.873,30.87 H 75.601 V 529.2 c 0,11.907 9.682,21.601 21.6,21.601 h 356.4 c 11.907,0 21.6,-9.693 21.6,-21.601 V 419.302 h 13.226 c 17.044,0 30.871,-13.827 30.871,-30.87 V 227.892 C 519.297,210.838 505.47,197.019 488.426,197.019 Z M 97.2,21.605 h 250.193 v 110.513 c 0,5.967 4.841,10.8 10.8,10.8 H 453.6 v 54.108 H 97.2 Z m 265.159,287.418 c 0,30.876 -11.243,52.165 -26.82,65.333 -16.971,14.117 -42.82,20.814 -74.396,20.814 -18.9,0 -32.297,-1.197 -41.401,-2.389 V 234.365 c 13.399,-2.149 30.878,-3.346 49.304,-3.346 30.612,0 50.478,5.508 66.039,17.226 16.743,12.445 27.274,32.302 27.274,60.778 z M 80.7,393.499 V 234.365 c 11.241,-1.904 27.042,-3.346 49.296,-3.346 22.491,0 38.527,4.308 49.291,12.928 10.292,8.131 17.215,21.534 17.215,37.328 0,15.799 -5.25,29.198 -14.829,38.285 -12.442,11.728 -30.865,16.996 -52.407,16.996 -4.778,0 -9.1,-0.243 -12.435,-0.723 v 57.67 H 80.7 Z M 453.601,523.353 H 97.2 V 419.302 h 356.4 v 104.051 z m 31.297,-261.226 h -61.989 v 36.851 h 57.913 v 29.674 H 422.909 V 393.5 H 386.316 V 232.216 h 98.582 z"
           inkscape:connector-curvature="0" />
      </g>
      <g
         id="g331" />
      <g
         id="g333" />
      <g
         id="g335" />
      <g
         id="g337" />
      <g
         id="g339" />
      <g
         id="g341" />
      <g
         id="g343" />
      <g
         id="g345" />
      <g
         id="g347" />
      <g
         id="g349" />
      <g
         id="g351" />
      <g
         id="g353" />
      <g
         id="g355" />
      <g
         id="g357" />
      <g
         id="g359" />
    </g>
    <g
       transform="matrix(0.13492155,0,0,0.13492155,-951.86079,425.70782)"
       id="g401">
      <g
         id="g369">
        <path
           inkscape:connector-curvature="0"
           d="m 160.381,282.225 c 0,-14.832 -10.299,-23.684 -28.474,-23.684 -7.414,0 -12.437,0.715 -15.071,1.432 V 307.6 c 3.114,0.707 6.942,0.949 12.192,0.949 19.391,0 31.353,-9.809 31.353,-26.324 z"
           id="path363" />
        <path
           inkscape:connector-curvature="0"
           d="m 272.875,259.019 c -8.145,0 -13.397,0.717 -16.519,1.435 v 105.523 c 3.116,0.729 8.142,0.729 12.69,0.729 33.017,0.231 54.554,-17.946 54.554,-56.474 0.242,-33.513 -19.385,-51.213 -50.725,-51.213 z"
           id="path365" />
        <path
           inkscape:connector-curvature="0"
           d="M 488.426,197.019 H 475.2 v -63.816 c 0,-0.398 -0.063,-0.799 -0.116,-1.202 -0.021,-2.534 -0.827,-5.023 -2.562,-6.995 L 366.325,3.694 C 366.293,3.663 366.262,3.652 366.24,3.618 365.607,2.911 364.869,2.323 364.089,1.814 363.858,1.659 363.625,1.529 363.383,1.395 362.707,1.026 361.99,0.72 361.252,0.499 c -0.2,-0.056 -0.38,-0.138 -0.58,-0.19 C 359.87,0.119 359.037,0 358.193,0 H 97.2 C 85.282,0 75.6,9.693 75.6,21.601 V 197.014 H 62.377 c -17.049,0 -30.873,13.818 -30.873,30.873 v 160.545 c 0,17.043 13.824,30.87 30.873,30.87 H 75.601 V 529.2 c 0,11.907 9.682,21.601 21.6,21.601 h 356.4 c 11.907,0 21.6,-9.693 21.6,-21.601 V 419.302 h 13.226 c 17.044,0 30.871,-13.827 30.871,-30.87 V 227.892 C 519.297,210.838 505.47,197.019 488.426,197.019 Z M 97.2,21.605 h 250.193 v 110.513 c 0,5.967 4.841,10.8 10.8,10.8 H 453.6 v 54.108 H 97.2 Z m 265.159,287.418 c 0,30.876 -11.243,52.165 -26.82,65.333 -16.971,14.117 -42.82,20.814 -74.396,20.814 -18.9,0 -32.297,-1.197 -41.401,-2.389 V 234.365 c 13.399,-2.149 30.878,-3.346 49.304,-3.346 30.612,0 50.478,5.508 66.039,17.226 16.743,12.445 27.274,32.302 27.274,60.778 z M 80.7,393.499 V 234.365 c 11.241,-1.904 27.042,-3.346 49.296,-3.346 22.491,0 38.527,4.308 49.291,12.928 10.292,8.131 17.215,21.534 17.215,37.328 0,15.799 -5.25,29.198 -14.829,38.285 -12.442,11.728 -30.865,16.996 -52.407,16.996 -4.778,0 -9.1,-0.243 -12.435,-0.723 v 57.67 H 80.7 Z M 453.601,523.353 H 97.2 V 419.302 h 356.4 v 104.051 z m 31.297,-261.226 h -61.989 v 36.851 h 57.913 v 29.674 H 422.909 V 393.5 H 386.316 V 232.216 h 98.582 z"
           id="path367" />
      </g>
      <g
         id="g371" />
      <g
         id="g373" />
      <g
         id="g375" />
      <g
         id="g377" />
      <g
         id="g379" />
      <g
         id="g381" />
      <g
         id="g383" />
      <g
         id="g385" />
      <g
         id="g387" />
      <g
         id="g389" />
      <g
         id="g391" />
      <g
         id="g393" />
      <g
         id="g395" />
      <g
         id="g397" />
      <g
         id="g399" />
    </g>
    <g
       id="g441"
       transform="matrix(0.13492155,0,0,0.13492155,-851.86079,425.70782)">
      <g
         id="g409">
        <path
           id="path403"
           d="m 160.381,282.225 c 0,-14.832 -10.299,-23.684 -28.474,-23.684 -7.414,0 -12.437,0.715 -15.071,1.432 V 307.6 c 3.114,0.707 6.942,0.949 12.192,0.949 19.391,0 31.353,-9.809 31.353,-26.324 z"
           inkscape:connector-curvature="0" />
        <path
           id="path405"
           d="m 272.875,259.019 c -8.145,0 -13.397,0.717 -16.519,1.435 v 105.523 c 3.116,0.729 8.142,0.729 12.69,0.729 33.017,0.231 54.554,-17.946 54.554,-56.474 0.242,-33.513 -19.385,-51.213 -50.725,-51.213 z"
           inkscape:connector-curvature="0" />
        <path
           id="path407"
           d="M 488.426,197.019 H 475.2 v -63.816 c 0,-0.398 -0.063,-0.799 -0.116,-1.202 -0.021,-2.534 -0.827,-5.023 -2.562,-6.995 L 366.325,3.694 C 366.293,3.663 366.262,3.652 366.24,3.618 365.607,2.911 364.869,2.323 364.089,1.814 363.858,1.659 363.625,1.529 363.383,1.395 362.707,1.026 361.99,0.72 361.252,0.499 c -0.2,-0.056 -0.38,-0.138 -0.58,-0.19 C 359.87,0.119 359.037,0 358.193,0 H 97.2 C 85.282,0 75.6,9.693 75.6,21.601 V 197.014 H 62.377 c -17.049,0 -30.873,13.818 -30.873,30.873 v 160.545 c 0,17.043 13.824,30.87 30.873,30.87 H 75.601 V 529.2 c 0,11.907 9.682,21.601 21.6,21.601 h 356.4 c 11.907,0 21.6,-9.693 21.6,-21.601 V 419.302 h 13.226 c 17.044,0 30.871,-13.827 30.871,-30.87 V 227.892 C 519.297,210.838 505.47,197.019 488.426,197.019 Z M 97.2,21.605 h 250.193 v 110.513 c 0,5.967 4.841,10.8 10.8,10.8 H 453.6 v 54.108 H 97.2 Z m 265.159,287.418 c 0,30.876 -11.243,52.165 -26.82,65.333 -16.971,14.117 -42.82,20.814 -74.396,20.814 -18.9,0 -32.297,-1.197 -41.401,-2.389 V 234.365 c 13.399,-2.149 30.878,-3.346 49.304,-3.346 30.612,0 50.478,5.508 66.039,17.226 16.743,12.445 27.274,32.302 27.274,60.778 z M 80.7,393.499 V 234.365 c 11.241,-1.904 27.042,-3.346 49.296,-3.346 22.491,0 38.527,4.308 49.291,12.928 10.292,8.131 17.215,21.534 17.215,37.328 0,15.799 -5.25,29.198 -14.829,38.285 -12.442,11.728 -30.865,16.996 -52.407,16.996 -4.778,0 -9.1,-0.243 -12.435,-0.723 v 57.67 H 80.7 Z M 453.601,523.353 H 97.2 V 419.302 h 356.4 v 104.051 z m 31.297,-261.226 h -61.989 v 36.851 h 57.913 v 29.674 H 422.909 V 393.5 H 386.316 V 232.216 h 98.582 z"
           inkscape:connector-curvature="0" />
      </g>
      <g
         id="g411" />
      <g
         id="g413" />
      <g
         id="g415" />
      <g
         id="g417" />
      <g
         id="g419" />
      <g
         id="g421" />
      <g
         id="g423" />
      <g
         id="g425" />
      <g
         id="g427" />
      <g
         id="g429" />
      <g
         id="g431" />
      <g
         id="g433" />
      <g
         id="g435" />
      <g
         id="g437" />
      <g
         id="g439" />
    </g>
    <g
       transform="matrix(0.13492155,0,0,0.13492155,-751.86079,425.70782)"
       id="g481">
      <g
         id="g449">
        <path
           inkscape:connector-curvature="0"
           d="m 160.381,282.225 c 0,-14.832 -10.299,-23.684 -28.474,-23.684 -7.414,0 -12.437,0.715 -15.071,1.432 V 307.6 c 3.114,0.707 6.942,0.949 12.192,0.949 19.391,0 31.353,-9.809 31.353,-26.324 z"
           id="path443" />
        <path
           inkscape:connector-curvature="0"
           d="m 272.875,259.019 c -8.145,0 -13.397,0.717 -16.519,1.435 v 105.523 c 3.116,0.729 8.142,0.729 12.69,0.729 33.017,0.231 54.554,-17.946 54.554,-56.474 0.242,-33.513 -19.385,-51.213 -50.725,-51.213 z"
           id="path445" />
        <path
           inkscape:connector-curvature="0"
           d="M 488.426,197.019 H 475.2 v -63.816 c 0,-0.398 -0.063,-0.799 -0.116,-1.202 -0.021,-2.534 -0.827,-5.023 -2.562,-6.995 L 366.325,3.694 C 366.293,3.663 366.262,3.652 366.24,3.618 365.607,2.911 364.869,2.323 364.089,1.814 363.858,1.659 363.625,1.529 363.383,1.395 362.707,1.026 361.99,0.72 361.252,0.499 c -0.2,-0.056 -0.38,-0.138 -0.58,-0.19 C 359.87,0.119 359.037,0 358.193,0 H 97.2 C 85.282,0 75.6,9.693 75.6,21.601 V 197.014 H 62.377 c -17.049,0 -30.873,13.818 -30.873,30.873 v 160.545 c 0,17.043 13.824,30.87 30.873,30.87 H 75.601 V 529.2 c 0,11.907 9.682,21.601 21.6,21.601 h 356.4 c 11.907,0 21.6,-9.693 21.6,-21.601 V 419.302 h 13.226 c 17.044,0 30.871,-13.827 30.871,-30.87 V 227.892 C 519.297,210.838 505.47,197.019 488.426,197.019 Z M 97.2,21.605 h 250.193 v 110.513 c 0,5.967 4.841,10.8 10.8,10.8 H 453.6 v 54.108 H 97.2 Z m 265.159,287.418 c 0,30.876 -11.243,52.165 -26.82,65.333 -16.971,14.117 -42.82,20.814 -74.396,20.814 -18.9,0 -32.297,-1.197 -41.401,-2.389 V 234.365 c 13.399,-2.149 30.878,-3.346 49.304,-3.346 30.612,0 50.478,5.508 66.039,17.226 16.743,12.445 27.274,32.302 27.274,60.778 z M 80.7,393.499 V 234.365 c 11.241,-1.904 27.042,-3.346 49.296,-3.346 22.491,0 38.527,4.308 49.291,12.928 10.292,8.131 17.215,21.534 17.215,37.328 0,15.799 -5.25,29.198 -14.829,38.285 -12.442,11.728 -30.865,16.996 -52.407,16.996 -4.778,0 -9.1,-0.243 -12.435,-0.723 v 57.67 H 80.7 Z M 453.601,523.353 H 97.2 V 419.302 h 356.4 v 104.051 z m 31.297,-261.226 h -61.989 v 36.851 h 57.913 v 29.674 H 422.909 V 393.5 H 386.316 V 232.216 h 98.582 z"
           id="path447" />
      </g>
      <g
         id="g451" />
      <g
         id="g453" />
      <g
         id="g455" />
      <g
         id="g457" />
      <g
         id="g459" />
      <g
         id="g461" />
      <g
         id="g463" />
      <g
         id="g465" />
      <g
         id="g467" />
      <g
         id="g469" />
      <g
         id="g471" />
      <g
         id="g473" />
      <g
         id="g475" />
      <g
         id="g477" />
      <g
         id="g479" />
    </g>
    <rect
       y="303.24139"
       x="-539.00446"
       height="231.64957"
       width="379.64789"
       id="rect483"
       style="color:#000000;clip-rule:nonzero;display:inline;overflow:visible;visibility:visible;opacity:1;isolation:auto;mix-blend-mode:normal;color-interpolation:sRGB;color-interpolation-filters:linearRGB;solid-color:#000000;solid-opacity:1;fill:#555753;fill-opacity:1;fill-rule:evenodd;stroke:#000000;stroke-width:3.75000001;stroke-linecap:butt;stroke-linejoin:miter;stroke-miterlimit:4;stroke-dasharray:none;stroke-dashoffset:0;stroke-opacity:1;color-rendering:auto;image-rendering:auto;shape-rendering:auto;text-rendering:auto;enable-background:accumulate" />
    <path
       style="fill:#888a85;fill-rule:evenodd;stroke:#888a85;stroke-width:4.00000048;stroke-linecap:butt;stroke-linejoin:miter;stroke-miterlimit:4;stroke-dasharray:16.00000095, 16.00000095;stroke-dashoffset:0;stroke-opacity:1;marker-end:url(#marker5429)"
       d="m 300.96098,409.59049 16.59729,0.61252"
       id="path485"
       inkscape:connector-curvature="0"
       sodipodi:nodetypes="cc" />
    <text
       id="text489"
       y="437.90405"
       x="-473.17953"
       style="font-style:normal;font-weight:normal;line-height:0%;font-family:sans-serif;letter-spacing:0px;word-spacing:0px;fill:#ffffff;fill-opacity:1;stroke:none;stroke-width:1px;stroke-linecap:butt;stroke-linejoin:miter;stroke-opacity:1"
       xml:space="preserve"><tspan
         style="font-style:normal;font-variant:normal;font-weight:normal;font-stretch:normal;font-size:60px;line-height:1.25;font-family:sans-serif;-inkscape-font-specification:sans-serif;fill:#ffffff"
         y="437.90405"
         x="-473.17953"
         id="tspan487"
         sodipodi:role="line">(2) Filtro</tspan></text>
    <text
       xml:space="preserve"
       style="font-style:normal;font-weight:normal;line-height:0%;font-family:sans-serif;letter-spacing:0px;word-spacing:0px;fill:#000000;fill-opacity:1;stroke:none;stroke-width:1px;stroke-linecap:butt;stroke-linejoin:miter;stroke-opacity:1"
       x="37.910767"
       y="560.45801"
       id="text537"><tspan
         sodipodi:role="line"
         id="tspan535"
         x="37.910767"
         y="560.45801"
         style="font-style:normal;font-variant:normal;font-weight:normal;font-stretch:normal;font-size:45.00000381px;line-height:1.25;font-family:sans-serif;-inkscape-font-specification:sans-serif">Artigos</tspan></text>
    <path
       style="fill:#888a85;fill-rule:evenodd;stroke:#888a85;stroke-width:4.00000048;stroke-linecap:butt;stroke-linejoin:miter;stroke-miterlimit:4;stroke-dasharray:16.00000095, 16.00000095;stroke-dashoffset:0;stroke-opacity:1;marker-end:url(#Arrow2Lend)"
       d="m -88.1518,409.59049 16.59727,0.61252"
       id="path739"
       inkscape:connector-curvature="0"
       sodipodi:nodetypes="cc" />
    <g
       transform="matrix(0.13492155,0,0,0.13492155,-33.11079,424.45782)"
       id="g779">
      <g
         id="g747">
        <path
           inkscape:connector-curvature="0"
           d="m 160.381,282.225 c 0,-14.832 -10.299,-23.684 -28.474,-23.684 -7.414,0 -12.437,0.715 -15.071,1.432 V 307.6 c 3.114,0.707 6.942,0.949 12.192,0.949 19.391,0 31.353,-9.809 31.353,-26.324 z"
           id="path741" />
        <path
           inkscape:connector-curvature="0"
           d="m 272.875,259.019 c -8.145,0 -13.397,0.717 -16.519,1.435 v 105.523 c 3.116,0.729 8.142,0.729 12.69,0.729 33.017,0.231 54.554,-17.946 54.554,-56.474 0.242,-33.513 -19.385,-51.213 -50.725,-51.213 z"
           id="path743" />
        <path
           inkscape:connector-curvature="0"
           d="M 488.426,197.019 H 475.2 v -63.816 c 0,-0.398 -0.063,-0.799 -0.116,-1.202 -0.021,-2.534 -0.827,-5.023 -2.562,-6.995 L 366.325,3.694 C 366.293,3.663 366.262,3.652 366.24,3.618 365.607,2.911 364.869,2.323 364.089,1.814 363.858,1.659 363.625,1.529 363.383,1.395 362.707,1.026 361.99,0.72 361.252,0.499 c -0.2,-0.056 -0.38,-0.138 -0.58,-0.19 C 359.87,0.119 359.037,0 358.193,0 H 97.2 C 85.282,0 75.6,9.693 75.6,21.601 V 197.014 H 62.377 c -17.049,0 -30.873,13.818 -30.873,30.873 v 160.545 c 0,17.043 13.824,30.87 30.873,30.87 H 75.601 V 529.2 c 0,11.907 9.682,21.601 21.6,21.601 h 356.4 c 11.907,0 21.6,-9.693 21.6,-21.601 V 419.302 h 13.226 c 17.044,0 30.871,-13.827 30.871,-30.87 V 227.892 C 519.297,210.838 505.47,197.019 488.426,197.019 Z M 97.2,21.605 h 250.193 v 110.513 c 0,5.967 4.841,10.8 10.8,10.8 H 453.6 v 54.108 H 97.2 Z m 265.159,287.418 c 0,30.876 -11.243,52.165 -26.82,65.333 -16.971,14.117 -42.82,20.814 -74.396,20.814 -18.9,0 -32.297,-1.197 -41.401,-2.389 V 234.365 c 13.399,-2.149 30.878,-3.346 49.304,-3.346 30.612,0 50.478,5.508 66.039,17.226 16.743,12.445 27.274,32.302 27.274,60.778 z M 80.7,393.499 V 234.365 c 11.241,-1.904 27.042,-3.346 49.296,-3.346 22.491,0 38.527,4.308 49.291,12.928 10.292,8.131 17.215,21.534 17.215,37.328 0,15.799 -5.25,29.198 -14.829,38.285 -12.442,11.728 -30.865,16.996 -52.407,16.996 -4.778,0 -9.1,-0.243 -12.435,-0.723 v 57.67 H 80.7 Z M 453.601,523.353 H 97.2 V 419.302 h 356.4 v 104.051 z m 31.297,-261.226 h -61.989 v 36.851 h 57.913 v 29.674 H 422.909 V 393.5 H 386.316 V 232.216 h 98.582 z"
           id="path745" />
      </g>
      <g
         id="g749" />
      <g
         id="g751" />
      <g
         id="g753" />
      <g
         id="g755" />
      <g
         id="g757" />
      <g
         id="g759" />
      <g
         id="g761" />
      <g
         id="g763" />
      <g
         id="g765" />
      <g
         id="g767" />
      <g
         id="g769" />
      <g
         id="g771" />
      <g
         id="g773" />
      <g
         id="g775" />
      <g
         id="g777" />
    </g>
    <g
       id="g819"
       transform="matrix(0.13492155,0,0,0.13492155,66.88921,424.45782)">
      <g
         id="g787">
        <path
           id="path781"
           d="m 160.381,282.225 c 0,-14.832 -10.299,-23.684 -28.474,-23.684 -7.414,0 -12.437,0.715 -15.071,1.432 V 307.6 c 3.114,0.707 6.942,0.949 12.192,0.949 19.391,0 31.353,-9.809 31.353,-26.324 z"
           inkscape:connector-curvature="0" />
        <path
           id="path783"
           d="m 272.875,259.019 c -8.145,0 -13.397,0.717 -16.519,1.435 v 105.523 c 3.116,0.729 8.142,0.729 12.69,0.729 33.017,0.231 54.554,-17.946 54.554,-56.474 0.242,-33.513 -19.385,-51.213 -50.725,-51.213 z"
           inkscape:connector-curvature="0" />
        <path
           id="path785"
           d="M 488.426,197.019 H 475.2 v -63.816 c 0,-0.398 -0.063,-0.799 -0.116,-1.202 -0.021,-2.534 -0.827,-5.023 -2.562,-6.995 L 366.325,3.694 C 366.293,3.663 366.262,3.652 366.24,3.618 365.607,2.911 364.869,2.323 364.089,1.814 363.858,1.659 363.625,1.529 363.383,1.395 362.707,1.026 361.99,0.72 361.252,0.499 c -0.2,-0.056 -0.38,-0.138 -0.58,-0.19 C 359.87,0.119 359.037,0 358.193,0 H 97.2 C 85.282,0 75.6,9.693 75.6,21.601 V 197.014 H 62.377 c -17.049,0 -30.873,13.818 -30.873,30.873 v 160.545 c 0,17.043 13.824,30.87 30.873,30.87 H 75.601 V 529.2 c 0,11.907 9.682,21.601 21.6,21.601 h 356.4 c 11.907,0 21.6,-9.693 21.6,-21.601 V 419.302 h 13.226 c 17.044,0 30.871,-13.827 30.871,-30.87 V 227.892 C 519.297,210.838 505.47,197.019 488.426,197.019 Z M 97.2,21.605 h 250.193 v 110.513 c 0,5.967 4.841,10.8 10.8,10.8 H 453.6 v 54.108 H 97.2 Z m 265.159,287.418 c 0,30.876 -11.243,52.165 -26.82,65.333 -16.971,14.117 -42.82,20.814 -74.396,20.814 -18.9,0 -32.297,-1.197 -41.401,-2.389 V 234.365 c 13.399,-2.149 30.878,-3.346 49.304,-3.346 30.612,0 50.478,5.508 66.039,17.226 16.743,12.445 27.274,32.302 27.274,60.778 z M 80.7,393.499 V 234.365 c 11.241,-1.904 27.042,-3.346 49.296,-3.346 22.491,0 38.527,4.308 49.291,12.928 10.292,8.131 17.215,21.534 17.215,37.328 0,15.799 -5.25,29.198 -14.829,38.285 -12.442,11.728 -30.865,16.996 -52.407,16.996 -4.778,0 -9.1,-0.243 -12.435,-0.723 v 57.67 H 80.7 Z M 453.601,523.353 H 97.2 V 419.302 h 356.4 v 104.051 z m 31.297,-261.226 h -61.989 v 36.851 h 57.913 v 29.674 H 422.909 V 393.5 H 386.316 V 232.216 h 98.582 z"
           inkscape:connector-curvature="0" />
      </g>
      <g
         id="g789" />
      <g
         id="g791" />
      <g
         id="g793" />
      <g
         id="g795" />
      <g
         id="g797" />
      <g
         id="g799" />
      <g
         id="g801" />
      <g
         id="g803" />
      <g
         id="g805" />
      <g
         id="g807" />
      <g
         id="g809" />
      <g
         id="g811" />
      <g
         id="g813" />
      <g
         id="g815" />
      <g
         id="g817" />
    </g>
    <g
       transform="matrix(0.13492155,0,0,0.13492155,166.88921,424.45782)"
       id="g859">
      <g
         id="g827">
        <path
           inkscape:connector-curvature="0"
           d="m 160.381,282.225 c 0,-14.832 -10.299,-23.684 -28.474,-23.684 -7.414,0 -12.437,0.715 -15.071,1.432 V 307.6 c 3.114,0.707 6.942,0.949 12.192,0.949 19.391,0 31.353,-9.809 31.353,-26.324 z"
           id="path821" />
        <path
           inkscape:connector-curvature="0"
           d="m 272.875,259.019 c -8.145,0 -13.397,0.717 -16.519,1.435 v 105.523 c 3.116,0.729 8.142,0.729 12.69,0.729 33.017,0.231 54.554,-17.946 54.554,-56.474 0.242,-33.513 -19.385,-51.213 -50.725,-51.213 z"
           id="path823" />
        <path
           inkscape:connector-curvature="0"
           d="M 488.426,197.019 H 475.2 v -63.816 c 0,-0.398 -0.063,-0.799 -0.116,-1.202 -0.021,-2.534 -0.827,-5.023 -2.562,-6.995 L 366.325,3.694 C 366.293,3.663 366.262,3.652 366.24,3.618 365.607,2.911 364.869,2.323 364.089,1.814 363.858,1.659 363.625,1.529 363.383,1.395 362.707,1.026 361.99,0.72 361.252,0.499 c -0.2,-0.056 -0.38,-0.138 -0.58,-0.19 C 359.87,0.119 359.037,0 358.193,0 H 97.2 C 85.282,0 75.6,9.693 75.6,21.601 V 197.014 H 62.377 c -17.049,0 -30.873,13.818 -30.873,30.873 v 160.545 c 0,17.043 13.824,30.87 30.873,30.87 H 75.601 V 529.2 c 0,11.907 9.682,21.601 21.6,21.601 h 356.4 c 11.907,0 21.6,-9.693 21.6,-21.601 V 419.302 h 13.226 c 17.044,0 30.871,-13.827 30.871,-30.87 V 227.892 C 519.297,210.838 505.47,197.019 488.426,197.019 Z M 97.2,21.605 h 250.193 v 110.513 c 0,5.967 4.841,10.8 10.8,10.8 H 453.6 v 54.108 H 97.2 Z m 265.159,287.418 c 0,30.876 -11.243,52.165 -26.82,65.333 -16.971,14.117 -42.82,20.814 -74.396,20.814 -18.9,0 -32.297,-1.197 -41.401,-2.389 V 234.365 c 13.399,-2.149 30.878,-3.346 49.304,-3.346 30.612,0 50.478,5.508 66.039,17.226 16.743,12.445 27.274,32.302 27.274,60.778 z M 80.7,393.499 V 234.365 c 11.241,-1.904 27.042,-3.346 49.296,-3.346 22.491,0 38.527,4.308 49.291,12.928 10.292,8.131 17.215,21.534 17.215,37.328 0,15.799 -5.25,29.198 -14.829,38.285 -12.442,11.728 -30.865,16.996 -52.407,16.996 -4.778,0 -9.1,-0.243 -12.435,-0.723 v 57.67 H 80.7 Z M 453.601,523.353 H 97.2 V 419.302 h 356.4 v 104.051 z m 31.297,-261.226 h -61.989 v 36.851 h 57.913 v 29.674 H 422.909 V 393.5 H 386.316 V 232.216 h 98.582 z"
           id="path825" />
      </g>
      <g
         id="g829" />
      <g
         id="g831" />
      <g
         id="g833" />
      <g
         id="g835" />
      <g
         id="g837" />
      <g
         id="g839" />
      <g
         id="g841" />
      <g
         id="g843" />
      <g
         id="g845" />
      <g
         id="g847" />
      <g
         id="g849" />
      <g
         id="g851" />
      <g
         id="g853" />
      <g
         id="g855" />
      <g
         id="g857" />
    </g>
    <g
       id="g899"
       transform="matrix(0.13492155,0,0,0.13492155,-33.11079,324.45782)">
      <g
         id="g867">
        <path
           id="path861"
           d="m 160.381,282.225 c 0,-14.832 -10.299,-23.684 -28.474,-23.684 -7.414,0 -12.437,0.715 -15.071,1.432 V 307.6 c 3.114,0.707 6.942,0.949 12.192,0.949 19.391,0 31.353,-9.809 31.353,-26.324 z"
           inkscape:connector-curvature="0" />
        <path
           id="path863"
           d="m 272.875,259.019 c -8.145,0 -13.397,0.717 -16.519,1.435 v 105.523 c 3.116,0.729 8.142,0.729 12.69,0.729 33.017,0.231 54.554,-17.946 54.554,-56.474 0.242,-33.513 -19.385,-51.213 -50.725,-51.213 z"
           inkscape:connector-curvature="0" />
        <path
           id="path865"
           d="M 488.426,197.019 H 475.2 v -63.816 c 0,-0.398 -0.063,-0.799 -0.116,-1.202 -0.021,-2.534 -0.827,-5.023 -2.562,-6.995 L 366.325,3.694 C 366.293,3.663 366.262,3.652 366.24,3.618 365.607,2.911 364.869,2.323 364.089,1.814 363.858,1.659 363.625,1.529 363.383,1.395 362.707,1.026 361.99,0.72 361.252,0.499 c -0.2,-0.056 -0.38,-0.138 -0.58,-0.19 C 359.87,0.119 359.037,0 358.193,0 H 97.2 C 85.282,0 75.6,9.693 75.6,21.601 V 197.014 H 62.377 c -17.049,0 -30.873,13.818 -30.873,30.873 v 160.545 c 0,17.043 13.824,30.87 30.873,30.87 H 75.601 V 529.2 c 0,11.907 9.682,21.601 21.6,21.601 h 356.4 c 11.907,0 21.6,-9.693 21.6,-21.601 V 419.302 h 13.226 c 17.044,0 30.871,-13.827 30.871,-30.87 V 227.892 C 519.297,210.838 505.47,197.019 488.426,197.019 Z M 97.2,21.605 h 250.193 v 110.513 c 0,5.967 4.841,10.8 10.8,10.8 H 453.6 v 54.108 H 97.2 Z m 265.159,287.418 c 0,30.876 -11.243,52.165 -26.82,65.333 -16.971,14.117 -42.82,20.814 -74.396,20.814 -18.9,0 -32.297,-1.197 -41.401,-2.389 V 234.365 c 13.399,-2.149 30.878,-3.346 49.304,-3.346 30.612,0 50.478,5.508 66.039,17.226 16.743,12.445 27.274,32.302 27.274,60.778 z M 80.7,393.499 V 234.365 c 11.241,-1.904 27.042,-3.346 49.296,-3.346 22.491,0 38.527,4.308 49.291,12.928 10.292,8.131 17.215,21.534 17.215,37.328 0,15.799 -5.25,29.198 -14.829,38.285 -12.442,11.728 -30.865,16.996 -52.407,16.996 -4.778,0 -9.1,-0.243 -12.435,-0.723 v 57.67 H 80.7 Z M 453.601,523.353 H 97.2 V 419.302 h 356.4 v 104.051 z m 31.297,-261.226 h -61.989 v 36.851 h 57.913 v 29.674 H 422.909 V 393.5 H 386.316 V 232.216 h 98.582 z"
           inkscape:connector-curvature="0" />
      </g>
      <g
         id="g869" />
      <g
         id="g871" />
      <g
         id="g873" />
      <g
         id="g875" />
      <g
         id="g877" />
      <g
         id="g879" />
      <g
         id="g881" />
      <g
         id="g883" />
      <g
         id="g885" />
      <g
         id="g887" />
      <g
         id="g889" />
      <g
         id="g891" />
      <g
         id="g893" />
      <g
         id="g895" />
      <g
         id="g897" />
    </g>
    <g
       transform="matrix(0.13492155,0,0,0.13492155,66.88921,324.45782)"
       id="g939">
      <g
         id="g907">
        <path
           inkscape:connector-curvature="0"
           d="m 160.381,282.225 c 0,-14.832 -10.299,-23.684 -28.474,-23.684 -7.414,0 -12.437,0.715 -15.071,1.432 V 307.6 c 3.114,0.707 6.942,0.949 12.192,0.949 19.391,0 31.353,-9.809 31.353,-26.324 z"
           id="path901" />
        <path
           inkscape:connector-curvature="0"
           d="m 272.875,259.019 c -8.145,0 -13.397,0.717 -16.519,1.435 v 105.523 c 3.116,0.729 8.142,0.729 12.69,0.729 33.017,0.231 54.554,-17.946 54.554,-56.474 0.242,-33.513 -19.385,-51.213 -50.725,-51.213 z"
           id="path903" />
        <path
           inkscape:connector-curvature="0"
           d="M 488.426,197.019 H 475.2 v -63.816 c 0,-0.398 -0.063,-0.799 -0.116,-1.202 -0.021,-2.534 -0.827,-5.023 -2.562,-6.995 L 366.325,3.694 C 366.293,3.663 366.262,3.652 366.24,3.618 365.607,2.911 364.869,2.323 364.089,1.814 363.858,1.659 363.625,1.529 363.383,1.395 362.707,1.026 361.99,0.72 361.252,0.499 c -0.2,-0.056 -0.38,-0.138 -0.58,-0.19 C 359.87,0.119 359.037,0 358.193,0 H 97.2 C 85.282,0 75.6,9.693 75.6,21.601 V 197.014 H 62.377 c -17.049,0 -30.873,13.818 -30.873,30.873 v 160.545 c 0,17.043 13.824,30.87 30.873,30.87 H 75.601 V 529.2 c 0,11.907 9.682,21.601 21.6,21.601 h 356.4 c 11.907,0 21.6,-9.693 21.6,-21.601 V 419.302 h 13.226 c 17.044,0 30.871,-13.827 30.871,-30.87 V 227.892 C 519.297,210.838 505.47,197.019 488.426,197.019 Z M 97.2,21.605 h 250.193 v 110.513 c 0,5.967 4.841,10.8 10.8,10.8 H 453.6 v 54.108 H 97.2 Z m 265.159,287.418 c 0,30.876 -11.243,52.165 -26.82,65.333 -16.971,14.117 -42.82,20.814 -74.396,20.814 -18.9,0 -32.297,-1.197 -41.401,-2.389 V 234.365 c 13.399,-2.149 30.878,-3.346 49.304,-3.346 30.612,0 50.478,5.508 66.039,17.226 16.743,12.445 27.274,32.302 27.274,60.778 z M 80.7,393.499 V 234.365 c 11.241,-1.904 27.042,-3.346 49.296,-3.346 22.491,0 38.527,4.308 49.291,12.928 10.292,8.131 17.215,21.534 17.215,37.328 0,15.799 -5.25,29.198 -14.829,38.285 -12.442,11.728 -30.865,16.996 -52.407,16.996 -4.778,0 -9.1,-0.243 -12.435,-0.723 v 57.67 H 80.7 Z M 453.601,523.353 H 97.2 V 419.302 h 356.4 v 104.051 z m 31.297,-261.226 h -61.989 v 36.851 h 57.913 v 29.674 H 422.909 V 393.5 H 386.316 V 232.216 h 98.582 z"
           id="path905" />
      </g>
      <g
         id="g909" />
      <g
         id="g911" />
      <g
         id="g913" />
      <g
         id="g915" />
      <g
         id="g917" />
      <g
         id="g919" />
      <g
         id="g921" />
      <g
         id="g923" />
      <g
         id="g925" />
      <g
         id="g927" />
      <g
         id="g929" />
      <g
         id="g931" />
      <g
         id="g933" />
      <g
         id="g935" />
      <g
         id="g937" />
    </g>
    <g
       id="g979"
       transform="matrix(0.13492155,0,0,0.13492155,166.88921,324.45782)">
      <g
         id="g947">
        <path
           id="path941"
           d="m 160.381,282.225 c 0,-14.832 -10.299,-23.684 -28.474,-23.684 -7.414,0 -12.437,0.715 -15.071,1.432 V 307.6 c 3.114,0.707 6.942,0.949 12.192,0.949 19.391,0 31.353,-9.809 31.353,-26.324 z"
           inkscape:connector-curvature="0" />
        <path
           id="path943"
           d="m 272.875,259.019 c -8.145,0 -13.397,0.717 -16.519,1.435 v 105.523 c 3.116,0.729 8.142,0.729 12.69,0.729 33.017,0.231 54.554,-17.946 54.554,-56.474 0.242,-33.513 -19.385,-51.213 -50.725,-51.213 z"
           inkscape:connector-curvature="0" />
        <path
           id="path945"
           d="M 488.426,197.019 H 475.2 v -63.816 c 0,-0.398 -0.063,-0.799 -0.116,-1.202 -0.021,-2.534 -0.827,-5.023 -2.562,-6.995 L 366.325,3.694 C 366.293,3.663 366.262,3.652 366.24,3.618 365.607,2.911 364.869,2.323 364.089,1.814 363.858,1.659 363.625,1.529 363.383,1.395 362.707,1.026 361.99,0.72 361.252,0.499 c -0.2,-0.056 -0.38,-0.138 -0.58,-0.19 C 359.87,0.119 359.037,0 358.193,0 H 97.2 C 85.282,0 75.6,9.693 75.6,21.601 V 197.014 H 62.377 c -17.049,0 -30.873,13.818 -30.873,30.873 v 160.545 c 0,17.043 13.824,30.87 30.873,30.87 H 75.601 V 529.2 c 0,11.907 9.682,21.601 21.6,21.601 h 356.4 c 11.907,0 21.6,-9.693 21.6,-21.601 V 419.302 h 13.226 c 17.044,0 30.871,-13.827 30.871,-30.87 V 227.892 C 519.297,210.838 505.47,197.019 488.426,197.019 Z M 97.2,21.605 h 250.193 v 110.513 c 0,5.967 4.841,10.8 10.8,10.8 H 453.6 v 54.108 H 97.2 Z m 265.159,287.418 c 0,30.876 -11.243,52.165 -26.82,65.333 -16.971,14.117 -42.82,20.814 -74.396,20.814 -18.9,0 -32.297,-1.197 -41.401,-2.389 V 234.365 c 13.399,-2.149 30.878,-3.346 49.304,-3.346 30.612,0 50.478,5.508 66.039,17.226 16.743,12.445 27.274,32.302 27.274,60.778 z M 80.7,393.499 V 234.365 c 11.241,-1.904 27.042,-3.346 49.296,-3.346 22.491,0 38.527,4.308 49.291,12.928 10.292,8.131 17.215,21.534 17.215,37.328 0,15.799 -5.25,29.198 -14.829,38.285 -12.442,11.728 -30.865,16.996 -52.407,16.996 -4.778,0 -9.1,-0.243 -12.435,-0.723 v 57.67 H 80.7 Z M 453.601,523.353 H 97.2 V 419.302 h 356.4 v 104.051 z m 31.297,-261.226 h -61.989 v 36.851 h 57.913 v 29.674 H 422.909 V 393.5 H 386.316 V 232.216 h 98.582 z"
           inkscape:connector-curvature="0" />
      </g>
      <g
         id="g949" />
      <g
         id="g951" />
      <g
         id="g953" />
      <g
         id="g955" />
      <g
         id="g957" />
      <g
         id="g959" />
      <g
         id="g961" />
      <g
         id="g963" />
      <g
         id="g965" />
      <g
         id="g967" />
      <g
         id="g969" />
      <g
         id="g971" />
      <g
         id="g973" />
      <g
         id="g975" />
      <g
         id="g977" />
    </g>
  </g>
</svg>
