<?xml version="1.0" encoding="UTF-8" standalone="no"?>
<!DOCTYPE svg PUBLIC "-//W3C//DTD SVG 1.0//EN" "http://www.w3.org/TR/2001/PR-SVG-20010719/DTD/svg10.dtd">
<svg width="26cm" height="20cm" viewBox="94 35 512 390" xmlns="http://www.w3.org/2000/svg" xmlns:xlink="http://www.w3.org/1999/xlink">
  <g id="Nova camada 1">
    <text font-size="12.8" style="fill: #000000; fill-opacity: 1; stroke: none;text-anchor:start;font-family:sans-serif;font-style:normal;font-weight:normal" x="94.6" y="255.066">
      <tspan x="94.6" y="255.066"></tspan>
    </text>
    <g>
      <rect style="fill: #ffffff; fill-opacity: 1; stroke-opacity: 1; stroke-width: 2; stroke: #000000" x="100.8" y="133.065" width="83.8" height="63" rx="0" ry="0"/>
      <text font-size="12.8" style="fill: #000000; fill-opacity: 1; stroke: none;text-anchor:middle;font-family:sans-serif;font-style:normal;font-weight:normal" x="142.7" y="168.465">
        <tspan x="142.7" y="168.465">Recursos</tspan>
      </text>
    </g>
    <g>
      <rect style="fill: #ffffff; fill-opacity: 1; stroke-opacity: 1; stroke-width: 2; stroke: #000000" x="237.1" y="132.865" width="83.8" height="63" rx="0" ry="0"/>
      <text font-size="12.8" style="fill: #000000; fill-opacity: 1; stroke: none;text-anchor:middle;font-family:sans-serif;font-style:normal;font-weight:normal" x="279" y="168.265">
        <tspan x="279" y="168.265">Pesquisa</tspan>
      </text>
    </g>
    <g>
      <rect style="fill: #ffffff; fill-opacity: 1; stroke-opacity: 1; stroke-width: 2; stroke: #000000" x="372.05" y="132.665" width="90.5" height="63" rx="0" ry="0"/>
      <text font-size="12.8" style="fill: #000000; fill-opacity: 1; stroke: none;text-anchor:middle;font-family:sans-serif;font-style:normal;font-weight:normal" x="417.3" y="160.065">
        <tspan x="417.3" y="160.065">Publicação</tspan>
        <tspan x="417.3" y="176.065">Topical</tspan>
      </text>
    </g>
    <g>
      <rect style="fill: #ffffff; fill-opacity: 1; stroke-opacity: 1; stroke-width: 2; stroke: #000000" x="508.25" y="132.665" width="90.1" height="63" rx="0" ry="0"/>
      <text font-size="12.8" style="fill: #000000; fill-opacity: 1; stroke: none;text-anchor:middle;font-family:sans-serif;font-style:normal;font-weight:normal" x="553.3" y="168.065">
        <tspan x="553.3" y="168.065">Reputação</tspan>
      </text>
    </g>
    <g>
      <rect style="fill: #ffffff; fill-opacity: 1; stroke-opacity: 1; stroke-width: 2; stroke: #000000" x="373.05" y="225.666" width="90.5" height="63" rx="0" ry="0"/>
      <text font-size="12.8" style="fill: #000000; fill-opacity: 1; stroke: none;text-anchor:middle;font-family:sans-serif;font-style:normal;font-weight:normal" x="418.3" y="253.066">
        <tspan x="418.3" y="253.066">Publicação</tspan>
        <tspan x="418.3" y="269.066">Software</tspan>
      </text>
    </g>
    <g>
      <path style="fill: #ffffff; fill-opacity: 1; stroke-opacity: 1; stroke-width: 2; stroke: #000000" fill-rule="evenodd" d="M 247.375 236.066 L 309.825,236.066 C 318.447,236.066 325.437,245.468 325.437,257.066 C 325.437,268.664 318.447,278.066 309.825,278.066 L 247.375,278.066 C 238.752,278.066 231.762,268.664 231.762,257.066 C 231.762,245.468 238.752,236.066 247.375,236.066z"/>
      <text font-size="12.8" style="fill: #000000; fill-opacity: 1; stroke: none;text-anchor:middle;font-family:sans-serif;font-style:normal;font-weight:normal" x="278.6" y="261.066">
        <tspan x="278.6" y="261.066">Software</tspan>
      </text>
    </g>
    <g>
      <rect style="fill: #ffffff; fill-opacity: 1; stroke-opacity: 1; stroke-width: 2; stroke: #000000" x="510.1" y="337.866" width="83.8" height="38" rx="0" ry="0"/>
      <text font-size="12.8" style="fill: #000000; fill-opacity: 1; stroke: none;text-anchor:middle;font-family:sans-serif;font-style:normal;font-weight:normal" x="552" y="360.766">
        <tspan x="552" y="360.766">Uso</tspan>
      </text>
    </g>
    <g>
      <rect style="fill: #ffffff; fill-opacity: 1; stroke-opacity: 1; stroke-width: 2; stroke: #000000" x="373.6" y="385.666" width="95" height="38" rx="0" ry="0"/>
      <text font-size="12.8" style="fill: #000000; fill-opacity: 1; stroke: none;text-anchor:middle;font-family:sans-serif;font-style:normal;font-weight:normal" x="421.1" y="408.566">
        <tspan x="421.1" y="408.566">Suporte</tspan>
      </text>
    </g>
    <g>
      <rect style="fill: #ffffff; fill-opacity: 1; stroke-opacity: 1; stroke-width: 2; stroke: #000000" x="224.326" y="314.166" width="107.95" height="86" rx="0" ry="0"/>
      <text font-size="12.8" style="fill: #000000; fill-opacity: 1; stroke: none;text-anchor:middle;font-family:sans-serif;font-style:normal;font-weight:normal" x="278.301" y="337.066">
        <tspan x="278.301" y="337.066">Software</tspan>
        <tspan x="278.301" y="353.066">Lançamentos</tspan>
        <tspan x="278.301" y="369.066">Manutenção</tspan>
        <tspan x="278.301" y="385.066">Melhoria</tspan>
      </text>
    </g>
    <g>
      <path style="fill: #ffffff; fill-opacity: 1; stroke-opacity: 1; stroke-width: 2; stroke: #000000" fill-rule="evenodd" d="M 451.708 68.4156 C 443.126,68.1564 426.483,73.5998 428.823,85.2642 C 431.164,96.9286 442.346,99.5205 447.027,96.1509 C 451.708,92.7812 439.745,112.481 462.63,117.665 C 485.514,122.849 497.216,114.555 493.836,108.593 C 490.455,102.631 513.86,122.59 524.782,111.185 C 535.704,99.7798 513.6,88.8931 518.281,90.4483 C 522.962,92.0036 537.264,89.9299 532.583,70.4893 C 527.903,51.0486 485.774,66.0827 490.455,63.2314 C 495.136,60.3801 483.434,46.1236 468.871,48.9749 C 454.308,51.8262 453.275,57.0003 451.715,68.4055 L 451.708,68.4156z"/>
      <text font-size="12.8" style="fill: #000000; fill-opacity: 1; stroke: none;text-anchor:middle;font-family:sans-serif;font-style:normal;font-weight:normal" x="484.843" y="81.839">
        <tspan x="484.843" y="81.839">Citações</tspan>
        <tspan x="484.843" y="97.839">Topical</tspan>
      </text>
    </g>
    <g>
      <path style="fill: #ffffff; fill-opacity: 1; stroke-opacity: 1; stroke-width: 2; stroke: #000000" fill-rule="evenodd" d="M 519.911 252.216 C 511.096,251.956 494.001,257.4 496.405,269.064 C 498.809,280.729 510.295,283.321 515.103,279.951 C 519.911,276.581 507.624,296.281 531.129,301.465 C 554.635,306.649 566.655,298.355 563.182,292.393 C 559.71,286.431 583.75,306.39 594.968,294.985 C 606.187,283.58 583.482,272.693 588.29,274.248 C 593.098,275.804 607.789,273.73 602.981,254.289 C 598.173,234.849 554.902,249.883 559.71,247.031 C 564.518,244.18 552.498,229.924 537.54,232.775 C 522.582,235.626 521.521,240.8 519.918,252.205 L 519.911,252.216z"/>
      <text font-size="12.8" style="fill: #000000; fill-opacity: 1; stroke: none;text-anchor:middle;font-family:sans-serif;font-style:normal;font-weight:normal" x="553.946" y="265.639">
        <tspan x="553.946" y="265.639">Citações</tspan>
        <tspan x="553.946" y="281.639">Software</tspan>
      </text>
    </g>
    <g>
      <line style="fill: none; stroke-opacity: 1; stroke-width: 2; stroke: #000000" x1="320.9" y1="164.365" x2="365.05" y2="164.193"/>
      <polygon style="fill: #000000; fill-opacity: 1; stroke-opacity: 1; stroke-width: 2; stroke: #000000" fill-rule="evenodd" points="365.062,167.193 371.05,164.169 365.038,161.193 "/>
    </g>
    <g>
      <line style="fill: none; stroke-opacity: 1; stroke-width: 2; stroke: #000000" x1="184.6" y1="164.565" x2="230.1" y2="164.392"/>
      <polygon style="fill: #000000; fill-opacity: 1; stroke-opacity: 1; stroke-width: 2; stroke: #000000" fill-rule="evenodd" points="230.111,167.392 236.1,164.369 230.089,161.392 "/>
    </g>
    <g>
      <line style="fill: none; stroke-opacity: 1; stroke-width: 2; stroke: #000000" x1="462.55" y1="164.165" x2="501.25" y2="164.165"/>
      <polygon style="fill: #000000; fill-opacity: 1; stroke-opacity: 1; stroke-width: 2; stroke: #000000" fill-rule="evenodd" points="501.25,167.165 507.25,164.165 501.25,161.165 "/>
    </g>
    <line style="fill: none; stroke-opacity: 1; stroke-width: 2; stroke: #000000" x1="443.575" y1="131.672" x2="455.939" y2="116.382"/>
    <g>
      <line style="fill: none; stroke-opacity: 1; stroke-width: 2; stroke: #000000" x1="509.207" y1="114.747" x2="519.648" y2="126.449"/>
      <polygon style="fill: #000000; fill-opacity: 1; stroke-opacity: 1; stroke-width: 2; stroke: #000000" fill-rule="evenodd" points="517.409,128.446 523.642,130.926 521.886,124.452 "/>
    </g>
    <g>
      <line style="fill: none; stroke-opacity: 1; stroke-width: 2; stroke-dasharray: 20 8 4 8; stroke: #000000" x1="142.7" y1="126.065" x2="142.7" y2="44"/>
      <path style="fill: none; stroke-opacity: 1; stroke-width: 2; stroke-dasharray: 20 8 4 8; stroke: #000000" d="M 142.7,44 A 8,8 0 0 1 150.7,36"/>
      <line style="fill: none; stroke-opacity: 1; stroke-width: 2; stroke-dasharray: 20 8 4 8; stroke: #000000" x1="150.7" y1="36" x2="545.3" y2="36"/>
      <path style="fill: none; stroke-opacity: 1; stroke-width: 2; stroke-dasharray: 20 8 4 8; stroke: #000000" d="M 545.3,36 A 8,8 0 0 1 553.3,44"/>
      <line style="fill: none; stroke-opacity: 1; stroke-width: 2; stroke-dasharray: 20 8 4 8; stroke: #000000" x1="553.3" y1="44" x2="553.3" y2="132.665"/>
      <polygon style="fill: #000000; fill-opacity: 1; stroke-opacity: 1; stroke-width: 2; stroke: #000000" fill-rule="evenodd" points="139.7,126.065 142.7,132.065 145.7,126.065 "/>
    </g>
    <g>
      <line style="fill: none; stroke-opacity: 1; stroke-width: 2; stroke: #000000" x1="279" y1="195.865" x2="278.67" y2="229.066"/>
      <polygon style="fill: #000000; fill-opacity: 1; stroke-opacity: 1; stroke-width: 2; stroke: #000000" fill-rule="evenodd" points="275.67,229.036 278.61,235.066 281.669,229.096 "/>
    </g>
    <g>
      <line style="fill: none; stroke-opacity: 1; stroke-width: 2; stroke: #000000" x1="278.6" y1="278.066" x2="278.36" y2="307.166"/>
      <polygon style="fill: #000000; fill-opacity: 1; stroke-opacity: 1; stroke-width: 2; stroke: #000000" fill-rule="evenodd" points="275.36,307.141 278.31,313.166 281.36,307.191 "/>
    </g>
    <g>
      <line style="fill: none; stroke-opacity: 1; stroke-width: 2; stroke: #000000" x1="332.276" y1="357.166" x2="503.1" y2="356.878"/>
      <polygon style="fill: #000000; fill-opacity: 1; stroke-opacity: 1; stroke-width: 2; stroke: #000000" fill-rule="evenodd" points="503.105,359.878 509.1,356.868 503.095,353.878 "/>
    </g>
    <g>
      <line style="fill: none; stroke-opacity: 1; stroke-width: 2; stroke: #000000" x1="421.1" y1="385.666" x2="421.166" y2="364.016"/>
      <polygon style="fill: #000000; fill-opacity: 1; stroke-opacity: 1; stroke-width: 2; stroke: #000000" fill-rule="evenodd" points="424.166,364.025 421.185,358.016 418.167,364.007 "/>
    </g>
    <g>
      <line style="fill: none; stroke-opacity: 1; stroke-width: 2; stroke: #000000" x1="325.438" y1="257.066" x2="366.05" y2="257.151"/>
      <polygon style="fill: #000000; fill-opacity: 1; stroke-opacity: 1; stroke-width: 2; stroke: #000000" fill-rule="evenodd" points="366.044,260.151 372.05,257.164 366.056,254.151 "/>
    </g>
    <g>
      <line style="fill: none; stroke-opacity: 1; stroke-width: 2; stroke: #000000" x1="463.55" y1="257.166" x2="525.611" y2="200.39"/>
      <polygon style="fill: #000000; fill-opacity: 1; stroke-opacity: 1; stroke-width: 2; stroke: #000000" fill-rule="evenodd" points="527.636,202.604 530.038,196.34 523.586,198.177 "/>
    </g>
    <line style="fill: none; stroke-opacity: 1; stroke-width: 2; stroke-dasharray: 4; stroke: #000000" x1="551.771" y1="336.886" x2="551.388" y2="303.498"/>
    <g>
      <line style="fill: none; stroke-opacity: 1; stroke-width: 2; stroke-dasharray: 4; stroke: #000000" x1="551.742" y1="233.908" x2="552.418" y2="203.639"/>
      <polygon style="fill: #000000; fill-opacity: 1; stroke-opacity: 1; stroke-width: 2; stroke: #000000" fill-rule="evenodd" points="555.418,203.706 552.552,197.641 549.419,203.572 "/>
    </g>
    <text font-size="12.8" style="fill: #000000; fill-opacity: 1; stroke: none;text-anchor:start;font-family:sans-serif;font-style:normal;font-weight:normal" x="311.354" y="53.6662">
      <tspan x="311.354" y="53.6662">Feedback</tspan>
    </text>
  </g>
</svg>
